<?xml version="1.0" encoding="UTF-8"?>
<svg id="Layer_2" data-name="Layer 2" xmlns="http://www.w3.org/2000/svg" viewBox="0 0 225.37 56.54">
  <defs>
    <style>
      .cls-1 {
        fill: #d8e3e8;
      }

      .cls-1, .cls-2, .cls-3, .cls-4, .cls-5, .cls-6, .cls-7 {
        stroke-linejoin: round;
        stroke-width: 2px;
      }

      .cls-1, .cls-3 {
        stroke: #1c1917;
      }

      .cls-2 {
        stroke: #f59e0b;
      }

      .cls-2, .cls-4, .cls-5, .cls-6, .cls-7 {
        fill: none;
        stroke-linecap: round;
      }

      .cls-3 {
        fill: #f8f0e5;
      }

      .cls-8 {
        fill: #1c1917;
      }

      .cls-4 {
        stroke: #ef4444;
      }

      .cls-5 {
        stroke: #8b5cf6;
      }

      .cls-6 {
        stroke: #3b82f6;
      }

      .cls-9 {
        fill: #c1272d;
      }

      .cls-7 {
        stroke: #22c55e;
      }
    </style>
  </defs>
  <g id="Layer_1-2" data-name="Layer 1">
    <path class="cls-3" d="M34.05,42.79l20.46-5.68L38.06,1h-10.81S10.27,5.71,6.8,6.68c-.01,0-.02,0-.03,0-3.02.85-5.31,1.73-5.34,4.54-.04,3.51-.43,30.45-.43,37.23,0,4.73,3.57,7.07,6.8,7.07h34.66l19.55-6.38v-6.38s-1.07-7.45-7.5-5.68L38.07,1l-20.46,5.68-10.37-.12,10.37.12,16.45,36.11c7.98-2.46,8.41,6.38,8.41,6.38v6.38"/>
    <polygon class="cls-1" points="17.61 6.68 38.07 1 51.65 30.82 31.19 36.49 17.61 6.68"/>
    <line class="cls-4" x1="46.95" y1="47.04" x2="46.95" y2="51.67"/>
    <line class="cls-2" x1="49.63" y1="46.21" x2="49.63" y2="50.84"/>
    <line class="cls-7" x1="52.31" y1="45.27" x2="52.31" y2="49.91"/>
    <line class="cls-6" x1="54.98" y1="44.36" x2="54.98" y2="48.99"/>
    <line class="cls-5" x1="57.66" y1="43.42" x2="57.66" y2="48.06"/>
    <path class="cls-9" d="M39.75,23.27l-4.32-3.73-.1,4.91-10.24-8.69,2.57-.66,3.45,3c.25.21.62.32.93.23.42-.11.62-.52.43-.92-.04-.09-.11-.19-.21-.26l-2.81-2.51,2.71-.7,3.42,3.02c.24.21.61.32.91.23.42-.11.61-.53.43-.92-.05-.1-.1-.19-.2-.26l-2.79-2.53,6.14-1.59-.32,11.38Z"/>
    <g>
      <path class="cls-8" d="M102.66,47.96l-8.07-17.17-7.82,17.17-18.41-39.28h8.86l6.09,13.21c.45.94,1.43,1.63,2.52,1.63,1.48,0,2.72-1.24,2.72-2.77,0-.35-.05-.74-.25-1.09l-4.9-10.98h9.4l6.14,13.31c.45.94,1.43,1.63,2.52,1.63,1.48,0,2.72-1.29,2.72-2.77,0-.4-.05-.74-.25-1.09l-4.95-11.08h21.52l-17.86,39.28Z"/>
      <path class="cls-8" d="M130.42,45.98V8.53h11.28v37.45h-11.28Z"/>
      <path class="cls-8" d="M169.95,46.13v-8.16c0-1.63-1.39-2.97-3.02-2.97s-2.97,1.39-2.97,3.02v8.11h-7.42V8.72h.25l22.51,20.63-.05-11.43-10.09-9.2h17.91v37.4h-17.12Z"/>
      <path class="cls-8" d="M218.84,46.18v-.05c-10.34-.25-18.65-8.66-18.65-19.05s8.26-18.8,18.65-19.05v-.05h6.53v11.83l-7.97-6.23v22.17h7.97v10.44h-6.53Z"/>
    </g>
  </g>
</svg>