<?xml version="1.0" encoding="UTF-8"?>
<svg id="Layer_2" data-name="Layer 2" xmlns="http://www.w3.org/2000/svg" viewBox="0 0 156.99 39.98">
  <defs>
    <style>
      .cls-1 {
        fill: #1c1917;
      }
    </style>
  </defs>
  <g id="Layer_1-2" data-name="Layer 1">
    <g>
      <path class="cls-1" d="M34.29,39.98l-8.07-17.17-7.82,17.17L0,.69h8.86l6.09,13.21c.45.94,1.43,1.63,2.52,1.63,1.48,0,2.72-1.24,2.72-2.77,0-.35-.05-.74-.25-1.09L15.04.69h9.4l6.14,13.31c.45.94,1.43,1.63,2.52,1.63,1.48,0,2.72-1.29,2.72-2.77,0-.4-.05-.74-.25-1.09L30.63.69h21.52l-17.86,39.28Z"/>
      <path class="cls-1" d="M62.05,38V.54h11.28v37.45h-11.28Z"/>
      <path class="cls-1" d="M101.58,38.15v-8.16c0-1.63-1.39-2.97-3.02-2.97s-2.97,1.39-2.97,3.02v8.11h-7.42V.74h.25l22.51,20.63-.05-11.43L100.79.74h17.91v37.4h-17.12Z"/>
      <path class="cls-1" d="M150.46,38.2v-.05c-10.34-.25-18.65-8.66-18.65-19.05S140.07.3,150.46.05v-.05h6.53v11.83l-7.97-6.23v22.17h7.97v10.44h-6.53Z"/>
    </g>
  </g>
</svg>