<?xml version="1.0" encoding="UTF-8"?>
<svg id="Layer_1" xmlns="http://www.w3.org/2000/svg" version="1.1" viewBox="0 0 800 800">
  <!-- Generator: Adobe Illustrator 29.5.1, SVG Export Plug-In . SVG Version: 2.1.0 Build 141)  -->
  <defs>
    <style>
      .st0 {
        fill: var(--foreground);
      }
    </style>
  </defs>
  <path class="st0" d="M426.2,799.5c-9.6,0-19.2-3.7-26.5-11-2.4-2.4-2.4-6.4,0-8.8,0,0,0,0,0,0,2.4-2.4,6.4-2.4,8.8,0h0c9.8,9.7,25.6,9.7,35.4,0,9.7-9.7,9.7-25.6,0-35.3-2.4-2.4-2.4-6.4,0-8.8,0,0,0,0,0,0,2.4-2.4,6.4-2.4,8.8,0,0,0,0,0,0,0,14.6,14.6,14.6,38.4,0,53-7.3,7.3-16.9,11-26.5,11ZM488.1,737.7c-10,0-19.4-3.9-26.5-11-2.4-2.4-2.4-6.4,0-8.8,0,0,0,0,0,0,2.4-2.4,6.4-2.4,8.8,0,0,0,0,0,0,0,9.4,9.4,25.9,9.5,35.3,0,9.7-9.7,9.7-25.6,0-35.3l-48.6-48.6c-2.4-2.4-2.4-6.4,0-8.8s6.4-2.4,8.8,0h0l48.6,48.6c14.6,14.6,14.6,38.4,0,53-7.1,7.1-16.5,11-26.5,11h0ZM549.9,675.8c-9.6,0-19.2-3.7-26.5-11l-48.6-48.6c-2.4-2.4-2.4-6.4,0-8.8s6.4-2.4,8.8,0l48.6,48.6c9.7,9.7,25.6,9.7,35.3,0s9.7-25.6,0-35.4l-48.6-48.6c-2.4-2.4-2.4-6.4,0-8.8s6.4-2.4,8.8,0l48.6,48.6c14.6,14.6,14.6,38.4,0,53-7.3,7.3-16.9,11-26.5,11h0ZM611.7,614c-9.6,0-19.2-3.6-26.5-10.9l-48.6-48.6c-2.4-2.4-2.4-6.4,0-8.8h0c2.4-2.4,6.4-2.4,8.8,0,0,0,0,0,0,0l48.6,48.6c9.7,9.7,25.6,9.7,35.3,0,9.7-9.7,9.7-25.6,0-35.4l-163.4-163.4c-2.4-2.4-2.4-6.4,0-8.8,0,0,0,0,0,0,2.4-2.4,6.4-2.4,8.8,0,0,0,0,0,0,0l163.4,163.4c14.6,14.6,14.6,38.4,0,53-7.3,7.3-16.9,10.9-26.5,10.9h0ZM152.8,520.6c-2.4,0-4.5-1.3-5.6-3.4-27.1-53.1-36-105.2-36.3-107.4-.6-3.4,1.7-6.6,5.1-7.2,3.4-.5,6.6,1.7,7.2,5.1,0,.5,9,52.5,35.1,103.8,1.6,3.1.4,6.8-2.7,8.4-.9.4-1.9.7-2.8.7h0ZM339.8,298.2c-.8,0-1.6-.2-2.4-.5-43.4-18.2-72.8-33.4-73.1-33.6-3.1-1.6-4.2-5.4-2.6-8.4,1.6-3.1,5.3-4.2,8.4-2.7,0,0,0,0,0,0,.3.2,29.3,15.2,72.1,33.2,3.2,1.3,4.7,5,3.3,8.2-1,2.3-3.2,3.8-5.7,3.8h0ZM636.7,528.2c-3.4,0-6.2-2.8-6.2-6.2,0-1.3.4-2.6,1.2-3.6,37.3-52.3,44.5-127.1,44.5-127.9.3-3.4,3.3-6,6.8-5.7,3.4.3,6,3.4,5.7,6.8-.3,3.2-7.6,79-46.8,134-1.2,1.6-3.1,2.6-5.1,2.6ZM373.2,781.8h0c-10,0-19.4-3.9-26.5-11-14.6-14.6-14.6-38.4,0-53l26.5-26.5c14.2-14.2,38.9-14.1,53,0,14.6,14.6,14.6,38.4,0,53l-26.5,26.5c-7.1,7.1-16.5,11-26.5,11ZM399.7,692.9c-6.6,0-13,2.6-17.7,7.3l-26.5,26.5c-9.7,9.8-9.7,25.6,0,35.3,4.7,4.7,11,7.3,17.7,7.3h0c6.7,0,12.9-2.6,17.7-7.3l26.5-26.5c9.7-9.7,9.7-25.6,0-35.3-4.7-4.7-11-7.3-17.7-7.3h0ZM311.4,720c-10,0-19.4-3.9-26.5-11-14.6-14.6-14.6-38.4,0-53l35.3-35.3c14.2-14.1,38.9-14.2,53,0,14.6,14.6,14.6,38.4,0,53l-35.3,35.3c-7.1,7.1-16.5,11-26.5,11ZM346.7,622.2c-6.6,0-13,2.6-17.7,7.3l-35.3,35.3c-9.7,9.7-9.7,25.6,0,35.4,4.7,4.7,11,7.3,17.7,7.3,6.6,0,13-2.6,17.7-7.3l35.3-35.3c9.7-9.7,9.7-25.6,0-35.3-4.7-4.7-11-7.3-17.7-7.3ZM249.5,658.2c-10,0-19.4-3.9-26.5-11-7.1-7.1-11-16.5-11-26.5,0-9.9,3.9-19.5,11-26.5l26.5-26.5c14.2-14.2,38.9-14.2,53,0,7.1,7.1,11,16.5,11,26.5s-3.9,19.4-11,26.5l-26.5,26.5c-7.1,7.1-16.5,11-26.5,11ZM276,569.2c-6.6,0-13,2.6-17.7,7.3l-26.5,26.5c-4.7,4.7-7.3,11-7.3,17.7,0,6.6,2.6,13,7.3,17.7,9.4,9.4,25.9,9.4,35.3,0l26.5-26.5c4.7-4.7,7.3-11,7.3-17.7,0-6.7-2.6-12.9-7.3-17.6-4.7-4.7-11-7.4-17.7-7.3h0ZM187.7,596.4h0c-10,0-19.4-3.9-26.5-11-14.6-14.6-14.6-38.4,0-53l17.7-17.7c14.2-14.2,38.8-14.1,53,0,7.1,7.1,11,16.5,11,26.5s-3.9,19.4-11,26.5l-17.7,17.7c-7.1,7.1-16.5,11-26.5,11h0ZM205.4,516.2c-6.6,0-13,2.6-17.6,7.3l-17.7,17.7c-9.7,9.7-9.7,25.6,0,35.3,4.7,4.7,11,7.3,17.7,7.3h0c6.7,0,12.9-2.6,17.7-7.3l17.7-17.7c4.7-4.7,7.3-11,7.3-17.7s-2.6-12.9-7.3-17.7c-4.7-4.7-11-7.3-17.7-7.3h0ZM320.2,428.5c-9.6,0-19.2-3.7-26.5-11-14.6-14.6-14.6-38.4,0-53l57.4-57.4c53.8-53.8,175.1-71.7,180.2-72.4,3.4-.5,6.6,1.9,7.1,5.3.5,3.4-1.9,6.6-5.3,7.1-1.2.2-122.2,18-173.1,68.9l-57.4,57.4c-9.7,9.7-9.7,25.6,0,35.3,9.7,9.7,25.6,9.7,35.3,0,3.2-3.2,79.9-79,119.2-39.8,2.4,2.4,2.4,6.4,0,8.8,0,0,0,0,0,0-2.4,2.4-6.4,2.4-8.8,0,0,0,0,0,0,0-25.3-25.3-81.9,20.1-101.6,39.8-7.3,7.3-16.9,11-26.5,11h0ZM708.9,388.5c-1.7,0-3.2-.7-4.4-1.8l-167.8-167.8c-2.4-2.4-2.4-6.4,0-8.8,0,0,0,0,0,0,2.4-2.4,6.4-2.4,8.8,0,0,0,0,0,0,0l167.8,167.8c2.4,2.4,2.4,6.4,0,8.8-1.2,1.2-2.8,1.8-4.4,1.8h0ZM770.7,362c-1.7,0-3.2-.7-4.4-1.8l-203.2-203.1c-2.4-2.4-2.4-6.4,0-8.8,0,0,0,0,0,0,2.4-2.4,6.4-2.4,8.8,0,0,0,0,0,0,0l203.2,203.1c2.4,2.4,2.4,6.4,0,8.8-1.2,1.2-2.8,1.8-4.4,1.8h0Z"/>
  <path class="st0" d="M541,220.7c-3.4,0-6.2-2.8-6.2-6.2,0-1.7.7-3.2,1.8-4.4l26.5-26.5c2.4-2.4,6.4-2.4,8.8,0,2.4,2.4,2.4,6.4,0,8.8l-26.5,26.5c-1.2,1.2-2.8,1.8-4.4,1.8h0ZM708.9,388.5c-1.7,0-3.2-.7-4.4-1.8-2.4-2.4-2.4-6.4,0-8.8,0,0,0,0,0,0l26.5-26.5c2.4-2.4,6.4-2.4,8.8,0,2.4,2.4,2.4,6.4,0,8.8h0l-26.5,26.5c-1.2,1.2-2.8,1.8-4.4,1.8h0ZM567.5,158.8c-3.4,0-6.2-2.8-6.2-6.2,0-1.7.7-3.2,1.8-4.4L709,2.3c2.4-2.4,6.4-2.4,8.8,0,2.4,2.4,2.4,6.4,0,8.8l-145.8,145.8c-1.2,1.2-2.8,1.8-4.4,1.8h0ZM770.7,362c-1.7,0-3.2-.7-4.4-1.8-2.4-2.4-2.4-6.4,0-8.8,0,0,0,0,0,0l23.1-23c2.4-2.4,6.4-2.4,8.8,0,2.4,2.4,2.4,6.4,0,8.8h0l-23.1,23c-1.2,1.2-2.8,1.8-4.4,1.8h0ZM90.6,406.1c-3.4,0-6.2-2.8-6.2-6.2,0-1.7.7-3.2,1.8-4.4l167.8-167.8c2.4-2.4,6.4-2.4,8.8,0s2.4,6.4,0,8.8l-167.8,167.8c-1.2,1.2-2.8,1.8-4.4,1.8h0ZM28.7,379.6c-1.7,0-3.2-.7-4.4-1.8-2.4-2.4-2.4-6.4,0-8.8,0,0,0,0,0,0l203.2-203.1c2.4-2.4,6.4-2.4,8.8,0,0,0,0,0,0,0,2.4,2.4,2.4,6.4,0,8.8,0,0,0,0,0,0L33.2,377.8c-1.2,1.2-2.8,1.8-4.4,1.8Z"/>
  <path class="st0" d="M90.6,406.1c-1.7,0-3.2-.7-4.4-1.8l-26.5-26.5c-2.4-2.4-2.4-6.4,0-8.8s6.4-2.4,8.8,0l26.5,26.5c2.4,2.4,2.4,6.4,0,8.8-1.2,1.2-2.8,1.8-4.4,1.8h0ZM258.4,238.3c-1.7,0-3.2-.7-4.4-1.8l-26.5-26.5c-2.4-2.4-2.4-6.4,0-8.8h0c2.4-2.4,6.4-2.4,8.8,0h0s26.5,26.5,26.5,26.5c2.4,2.4,2.4,6.4,0,8.8h0c-1.2,1.2-2.8,1.8-4.4,1.8h0ZM28.7,379.6c-1.7,0-3.2-.7-4.4-1.8l-22-22c-2.4-2.5-2.4-6.4,0-8.8,2.4-2.4,6.3-2.4,8.8,0l22,22c2.4,2.4,2.4,6.4,0,8.8,0,0,0,0,0,0-1.2,1.2-2.8,1.8-4.4,1.8h0ZM231.9,176.5c-1.7,0-3.2-.7-4.4-1.8L64,11.2c-2.4-2.4-2.4-6.4,0-8.8s6.4-2.4,8.8,0l163.4,163.5c2.4,2.4,2.4,6.4,0,8.8,0,0,0,0,0,0-1.2,1.2-2.8,1.8-4.4,1.8ZM18.7,324.8c-5,0-9.8-2-13.3-5.5-7.3-7.3-7.3-19.2,0-26.5,7.1-7.1,19.4-7.1,26.5,0,3.5,3.5,5.5,8.3,5.5,13.2,0,5-2,9.7-5.5,13.3-3.5,3.5-8.3,5.5-13.2,5.5h0ZM18.7,299.8c-1.7,0-3.2.6-4.4,1.8-2.4,2.4-2.4,6.4,0,8.9,2.3,2.3,6.5,2.3,8.8,0,1.2-1.2,1.8-2.8,1.8-4.4,0-1.7-.6-3.2-1.8-4.4-1.2-1.2-2.8-1.8-4.4-1.8Z"/>
</svg>