<?xml version="1.0" encoding="UTF-8"?>
<svg id="Layer_1" xmlns="http://www.w3.org/2000/svg" version="1.1" viewBox="0 0 800 800">
  <!-- Generator: Adobe Illustrator 29.5.1, SVG Export Plug-In . SVG Version: 2.1.0 Build 141)  -->
  <defs>
    <style>
      .st0 {
        fill: var(--foreground);
      }
    </style>
  </defs>
  <path class="st0" d="M793.6,537.4H6.4c-3.4,0-6.2-2.8-6.2-6.2,0,0,0,0,0,0,0-3.4,2.8-6.2,6.2-6.2h787.3c3.4,0,6.2,2.8,6.2,6.2h0c0,3.5-2.8,6.3-6.2,6.3h0ZM400,599.8c-13.8,0-25-11.2-25-25s11.2-25,25-25,25,11.2,25,25-11.2,25-25,25ZM400,562.3c-6.9,0-12.5,5.6-12.5,12.5s5.6,12.5,12.5,12.5,12.5-5.6,12.5-12.5-5.6-12.5-12.5-12.5h0ZM293.9,762.3c-3.5,0-6.3-2.8-6.3-6.3,0-.5,0-.9.1-1.3l25-112.5c.8-3.4,4.1-5.4,7.5-4.7,3.4.8,5.5,4.1,4.7,7.5l-25,112.5c-.6,2.9-3.2,4.9-6.1,4.9h0ZM506.1,762.3c-2.9,0-5.5-2-6.1-4.9l-25-112.5c-.7-3.4,1.4-6.7,4.7-7.5,3.4-.8,6.7,1.4,7.5,4.7h0s25,112.5,25,112.5c.7,3.4-1.4,6.7-4.8,7.5-.4,0-.9.1-1.3.1Z"/>
  <path class="st0" d="M525,762.3h-249.9c-3.4,0-6.2-2.8-6.2-6.2h0c0-3.5,2.8-6.3,6.2-6.3h249.9c3.4,0,6.2,2.8,6.2,6.2h0c0,3.5-2.8,6.3-6.2,6.3h0ZM756.1,500.1H43.9c-3.4,0-6.2-2.8-6.2-6.2h0V81.4c0-3.4,2.8-6.2,6.2-6.2h712.3c3.5,0,6.2,2.8,6.2,6.2v412.4c0,3.4-2.8,6.2-6.2,6.2h0ZM50.1,487.6h699.8V87.7H50.1v399.9Z"/>
  <path class="st0" d="M756.1,625H43.9c-24.1,0-43.7-19.6-43.7-43.7V81.4C.1,57.3,19.7,37.7,43.9,37.7h712.3c24.1,0,43.7,19.6,43.7,43.7v499.8c0,24.1-19.6,43.7-43.7,43.7ZM43.9,50.2c-17.2,0-31.2,14-31.2,31.2v499.8c0,17.2,14,31.2,31.2,31.2h712.3c17.2,0,31.2-14,31.2-31.2V81.4c0-17.2-14-31.2-31.2-31.2H43.9Z"/>
  <path class="st0" d="M756.1,649.8H43.9c-24.5,0-43.7-19.2-43.7-43.7v-25c0-3.4,2.8-6.2,6.2-6.2h0c3.4,0,6.2,2.8,6.2,6.2,0,0,0,0,0,0v25c0,17.5,13.7,31.2,31.2,31.2h712.3c17.5,0,31.2-13.7,31.2-31.2v-24.8c0-3.4,2.8-6.2,6.2-6.2h0c3.4,0,6.2,2.8,6.2,6.2h0v24.8c0,24.5-19.2,43.7-43.7,43.7h0ZM68.9,500.1c-3.4,0-6.2-2.8-6.2-6.2h0V81.4c0-3.4,2.8-6.2,6.2-6.2h0c3.4,0,6.2,2.8,6.2,6.2h0v412.4c0,3.4-2.8,6.2-6.2,6.2h0Z"/>
  <path class="st0" d="M56.4,125.2h-12.5c-3.5,0-6.2-2.8-6.2-6.2s2.8-6.2,6.2-6.2h12.5c3.5,0,6.2,2.8,6.2,6.2s-2.8,6.2-6.2,6.2ZM56.4,162.7h-12.5c-3.5,0-6.2-2.8-6.2-6.2s2.8-6.2,6.2-6.2h12.5c3.5,0,6.2,2.8,6.2,6.2s-2.8,6.2-6.2,6.2ZM56.4,200.2h-12.5c-3.5,0-6.2-2.8-6.2-6.2s2.8-6.2,6.2-6.2h12.5c3.5,0,6.2,2.8,6.2,6.2s-2.8,6.2-6.2,6.2ZM56.4,237.6h-12.5c-3.5,0-6.2-2.8-6.2-6.2s2.8-6.2,6.2-6.2h12.5c3.5,0,6.2,2.8,6.2,6.2s-2.8,6.2-6.2,6.2Z"/>
  <path class="st0" d="M56.4,275.1h-12.5c-3.5,0-6.2-2.8-6.2-6.2s2.8-6.2,6.2-6.2h12.5c3.5,0,6.2,2.8,6.2,6.2s-2.8,6.2-6.2,6.2Z"/>
  <path class="st0" d="M56.4,312.6h-12.5c-3.4,0-6.2-2.8-6.2-6.2h0c0-3.5,2.8-6.3,6.2-6.3h12.5c3.4,0,6.2,2.8,6.2,6.2h0c0,3.5-2.8,6.3-6.2,6.3h0Z"/>
  <path class="st0" d="M56.4,350.1h-12.5c-3.4,0-6.2-2.8-6.2-6.2h0c0-3.5,2.8-6.3,6.2-6.3h12.5c3.4,0,6.2,2.8,6.2,6.2h0c0,3.5-2.8,6.3-6.2,6.3h0Z"/>
  <path class="st0" d="M56.4,387.6h-12.5c-3.4,0-6.2-2.8-6.2-6.2h0c0-3.5,2.8-6.3,6.2-6.3h12.5c3.4,0,6.2,2.8,6.2,6.2h0c0,3.5-2.8,6.3-6.2,6.3h0Z"/>
  <path class="st0" d="M56.4,425.1h-12.5c-3.4,0-6.2-2.8-6.2-6.2h0c0-3.5,2.8-6.3,6.2-6.3h12.5c3.4,0,6.2,2.8,6.2,6.2h0c0,3.5-2.8,6.3-6.2,6.3h0Z"/>
  <path class="st0" d="M56.4,462.6h-12.5c-3.5,0-6.2-2.8-6.2-6.2s2.8-6.2,6.2-6.2h12.5c3.5,0,6.2,2.8,6.2,6.2s-2.8,6.2-6.2,6.2Z"/>
  <path class="st0" d="M156.3,125.2h-50c-3.5,0-6.2-2.8-6.2-6.2s2.8-6.2,6.2-6.2h50c3.5,0,6.2,2.8,6.2,6.2s-2.8,6.2-6.2,6.2ZM381.3,162.7h-174.9c-3.5,0-6.2-2.8-6.2-6.2s2.8-6.2,6.2-6.2h174.9c3.5,0,6.2,2.8,6.2,6.2s-2.8,6.2-6.2,6.2h0ZM181.3,162.7h-62.5c-3.5,0-6.2-2.8-6.2-6.2s2.8-6.2,6.2-6.2h62.5c3.5,0,6.2,2.8,6.2,6.2s-2.8,6.2-6.2,6.2ZM531.2,200.2h-162.5c-3.5,0-6.2-2.8-6.2-6.2s2.8-6.2,6.2-6.2h162.5c3.5,0,6.2,2.8,6.2,6.2s-2.8,6.2-6.2,6.2h0ZM606.2,200.2h-50c-3.5,0-6.2-2.8-6.2-6.2s2.8-6.2,6.2-6.2h50c3.5,0,6.2,2.8,6.2,6.2s-2.8,6.2-6.2,6.2ZM343.8,200.2h-212.4c-3.5,0-6.2-2.8-6.2-6.2s2.8-6.2,6.2-6.2h212.4c3.5,0,6.2,2.8,6.2,6.2s-2.8,6.2-6.2,6.2h0ZM168.8,275.1h-37.5c-3.5,0-6.2-2.8-6.2-6.2s2.8-6.2,6.2-6.2h37.5c3.5,0,6.2,2.8,6.2,6.2s-2.8,6.2-6.2,6.2h0ZM379.3,275.1h-185.5c-3.5,0-6.2-2.8-6.2-6.2s2.8-6.2,6.2-6.2h185.5c3.5,0,6.2,2.8,6.2,6.2s-2.8,6.2-6.2,6.2ZM431.2,237.6H143.8c-3.5,0-6.2-2.8-6.2-6.2s2.8-6.2,6.2-6.2h287.4c3.5,0,6.2,2.8,6.2,6.2s-2.8,6.2-6.2,6.2h0ZM418.7,312.6h-112.5c-3.4,0-6.2-2.8-6.2-6.2h0c0-3.5,2.8-6.3,6.2-6.3h112.5c3.5,0,6.2,2.8,6.2,6.2,0,3.4-2.8,6.2-6.2,6.2h0ZM331.3,350.1H118.8c-3.4,0-6.2-2.8-6.2-6.2h0c0-3.5,2.8-6.3,6.2-6.3h212.4c3.4,0,6.2,2.8,6.2,6.2h0c0,3.5-2.8,6.3-6.2,6.3h0,0ZM218.8,425.1h-100c-3.4,0-6.2-2.8-6.2-6.2h0c0-3.5,2.8-6.3,6.2-6.3h100c3.4,0,6.2,2.8,6.2,6.2h0c0,3.5-2.8,6.3-6.2,6.3h0ZM468.7,387.6h-174.9c-3.4,0-6.2-2.8-6.2-6.2h0c0-3.5,2.8-6.3,6.2-6.3h175c3.5,0,6.2,2.8,6.2,6.2,0,3.4-2.8,6.2-6.2,6.2h0ZM506.2,387.6h-12.5c-3.5,0-6.2-2.8-6.2-6.2,0-3.4,2.8-6.2,6.2-6.2h12.5c3.5,0,6.2,2.8,6.2,6.2s-2.8,6.2-6.2,6.2ZM268.8,387.6h-137.5c-3.4,0-6.2-2.8-6.2-6.2h0c0-3.5,2.8-6.3,6.2-6.3h137.5c3.4,0,6.2,2.8,6.2,6.2h0c0,3.5-2.8,6.3-6.2,6.3h0ZM156.3,462.6h-50c-3.5,0-6.2-2.8-6.2-6.2s2.8-6.2,6.2-6.2h50c3.5,0,6.2,2.8,6.2,6.2s-2.8,6.2-6.2,6.2ZM431.2,350.1h-75c-3.4,0-6.2-2.8-6.2-6.2h0c0-3.5,2.8-6.3,6.2-6.3h75c3.4,0,6.2,2.8,6.2,6.2h0c0,3.5-2.8,6.3-6.2,6.3h0ZM531.2,312.6h-87.5c-3.5,0-6.2-2.8-6.2-6.2,0-3.4,2.8-6.2,6.2-6.2h87.5c3.4,0,6.2,2.8,6.2,6.2h0c0,3.5-2.8,6.3-6.2,6.3h0ZM281.3,312.6h-150c-3.4,0-6.2-2.8-6.2-6.2h0c0-3.5,2.8-6.3,6.2-6.3h150c3.4,0,6.2,2.8,6.2,6.2h0c0,3.5-2.8,6.3-6.2,6.3h0,0Z"/>
</svg>