<?xml version="1.0" encoding="UTF-8"?>
<svg id="Layer_1" xmlns="http://www.w3.org/2000/svg" version="1.1" viewBox="0 0 800 800">
  <!-- Generator: Adobe Illustrator 29.5.1, SVG Export Plug-In . SVG Version: 2.1.0 Build 141)  -->
  <defs>
    <style>
      .st0 {
        fill: var(--foreground);
      }
    </style>
  </defs>
  <path class="st0" d="M212.5,400c-62,0-112.5-50.5-112.5-112.5s50.5-112.5,112.5-112.5,112.5,50.5,112.5,112.5-50.5,112.5-112.5,112.5ZM212.5,187.5c-55.1,0-100,44.9-100,100s44.9,100,100,100,100-44.9,100-100-44.9-100-100-100Z"/>
  <path class="st0" d="M212.5,425c-62,0-112.5-50.5-112.5-112.5s2.8-6.2,6.2-6.2,6.2,2.8,6.2,6.2c0,55.1,44.9,100,100,100s100-44.9,100-100c0-3.4,2.8-6.2,6.2-6.2h0c3.4,0,6.2,2.8,6.2,6.2h0c0,62-50.5,112.5-112.5,112.5Z"/>
  <path class="st0" d="M106.3,318.8c-3.5,0-6.2-2.8-6.2-6.2v-25c0-3.5,2.8-6.2,6.2-6.2s6.2,2.8,6.2,6.2v25c0,3.5-2.8,6.2-6.2,6.2ZM318.8,318.8c-3.5,0-6.2-2.8-6.2-6.2v-25c0-3.4,2.8-6.2,6.2-6.2h0c3.4,0,6.2,2.8,6.2,6.2h0v25c0,3.5-2.8,6.2-6.2,6.2ZM212.5,337.5c-27.6,0-50-22.4-50-50s22.4-50,50-50,50,22.4,50,50-22.4,50-50,50ZM212.5,250c-20.7,0-37.5,16.8-37.5,37.5s16.8,37.5,37.5,37.5,37.5-16.8,37.5-37.5-16.8-37.5-37.5-37.5Z"/>
  <path class="st0" d="M254.5,306.3c-2.8,0-5.2-1.8-6-4.5-4.7-15.8-19.5-26.8-35.9-26.8s-31.3,11-35.9,26.8c-1,3.3-4.5,5.2-7.8,4.2,0,0,0,0,0,0-3.3-1-5.2-4.5-4.2-7.8,6.3-21,26-35.7,47.9-35.7s41.7,14.7,47.9,35.7c1,3.3-.9,6.8-4.2,7.8-.6.2-1.2.3-1.8.3h0ZM181.2,262.4c-1.7,0-3.2-.7-4.4-1.8l-43.8-43.8c-2.4-2.5-2.3-6.5.2-8.8,2.4-2.3,6.2-2.3,8.6,0l43.8,43.8c2.4,2.4,2.4,6.4,0,8.8-1.2,1.2-2.8,1.8-4.4,1.8h0ZM212.5,400c-3.5,0-6.2-2.8-6.2-6.2v-62.5c0-3.5,2.8-6.2,6.2-6.2s6.2,2.8,6.2,6.2v62.5c0,3.5-2.8,6.2-6.2,6.2ZM412.5,75h-25c-3.5,0-6.2-2.8-6.2-6.2v-25c0-3.5,2.8-6.2,6.2-6.2h25c3.5,0,6.2,2.8,6.2,6.2v25c0,3.5-2.8,6.2-6.2,6.2ZM393.8,62.5h12.5v-12.5h-12.5v12.5Z"/>
  <path class="st0" d="M768.7,600H31.3c-3.5,0-6.2-2.8-6.2-6.2V118.8c0-3.5,2.8-6.2,6.2-6.2h737.5c3.5,0,6.2,2.8,6.2,6.2v475c0,3.5-2.8,6.2-6.2,6.2h0ZM37.5,587.5h725V125H37.5v462.5h0Z"/>
  <path class="st0" d="M793.7,125H6.3c-3.5,0-6.2-2.8-6.2-6.2v-50c0-3.5,2.8-6.2,6.2-6.2h787.5c3.4,0,6.2,2.8,6.2,6.2h0v50c0,3.5-2.8,6.2-6.2,6.2h0ZM12.5,112.5h775v-37.5H12.5v37.5h0Z"/>
  <path class="st0" d="M756.2,100H43.8c-3.5,0-6.2-2.8-6.2-6.2s2.8-6.2,6.2-6.2h712.5c3.5,0,6.2,2.8,6.2,6.2s-2.8,6.2-6.3,6.2ZM568.7,762.5c-1,0-1.9-.2-2.8-.7l-168.7-84.4c-3.1-1.5-4.3-5.3-2.8-8.4s5.3-4.3,8.4-2.8l168.7,84.4c3.5,0,6.2,2.8,6.2,6.3s-2.8,6.2-6.3,6.2c-1,0-1.9-.2-2.8-.7h0ZM618.7,762.5c-1,0-1.9-.2-2.8-.7l-218.7-109.4c-3.1-1.5-4.3-5.3-2.8-8.4s5.3-4.3,8.4-2.8l218.7,109.4c3.5,0,6.2,2.8,6.2,6.3s-2.8,6.2-6.3,6.2c-1,0-1.9-.2-2.8-.7Z"/>
  <path class="st0" d="M618.7,762.5h-50c-3.5,0-6.2-2.8-6.2-6.2s2.8-6.2,6.2-6.2h50c3.5,0,6.2,2.8,6.2,6.2s-2.8,6.2-6.2,6.2ZM231.3,762.5c-2.4,0-4.5-1.3-5.6-3.5-1.5-3.1-.3-6.8,2.8-8.4,0,0,0,0,0,0l168.7-84.4c3.1-1.5,6.8-.3,8.4,2.8,1.5,3.1.3,6.8-2.8,8.4,0,0,0,0,0,0l-168.7,84.4c-.9.4-1.8.7-2.8.7ZM181.3,762.5c-2.4,0-4.5-1.3-5.6-3.5-1.5-3.1-.3-6.8,2.8-8.4,0,0,0,0,0,0l218.7-109.4c3.1-1.5,6.8-.3,8.4,2.8,1.5,3.1.3,6.8-2.8,8.4,0,0,0,0,0,0l-218.7,109.4c-.9.4-1.8.7-2.8.7Z"/>
  <path class="st0" d="M231.3,762.5h-50c-3.5,0-6.2-2.8-6.2-6.2s2.8-6.2,6.2-6.2h50c3.5,0,6.2,2.8,6.2,6.2s-2.8,6.2-6.2,6.2ZM387.5,659.4c-3.5,0-6.2-2.8-6.2-6.2v-59.4c0-3.5,2.8-6.2,6.2-6.2s6.2,2.8,6.2,6.2v59.4c0,3.5-2.8,6.2-6.2,6.2ZM412.5,659.4c-3.5,0-6.2-2.8-6.2-6.2v-59.4c0-3.5,2.8-6.2,6.2-6.2s6.2,2.8,6.2,6.2v59.4c0,3.5-2.8,6.2-6.2,6.2ZM412.5,762.5c-3.5,0-6.2-2.8-6.2-6.2v-78.1c0-3.5,2.8-6.2,6.2-6.2s6.2,2.8,6.2,6.2v78.1c0,3.5-2.8,6.2-6.2,6.2Z"/>
  <path class="st0" d="M412.5,762.5h-25c-3.5,0-6.2-2.8-6.2-6.2s2.8-6.2,6.2-6.2h25c3.5,0,6.2,2.8,6.2,6.2s-2.8,6.2-6.2,6.2Z"/>
  <path class="st0" d="M387.5,762.5c-3.5,0-6.2-2.8-6.2-6.2v-78.1c0-3.5,2.8-6.2,6.2-6.2s6.2,2.8,6.2,6.2v78.1c0,3.5-2.8,6.2-6.2,6.2ZM400,562.5c-3.4,0-6.2-2.8-6.2-6.2h0V156.3c0-3.5,2.8-6.2,6.2-6.2s6.2,2.8,6.2,6.2v400c0,3.5-2.8,6.2-6.2,6.2ZM468.7,412.5c-3.5,0-6.2-2.8-6.2-6.2v-212.5c0-3.5,2.8-6.2,6.2-6.2s6.2,2.8,6.2,6.2v212.5c0,3.5-2.8,6.2-6.2,6.2Z"/>
  <path class="st0" d="M706.2,412.5h-237.5c-3.5,0-6.2-2.8-6.2-6.2s2.8-6.2,6.2-6.2h237.5c3.5,0,6.2,2.8,6.2,6.2s-2.8,6.2-6.2,6.2h0Z"/>
  <path class="st0" d="M706.2,475h-237.5c-3.5,0-6.2-2.8-6.2-6.2,0-3.4,2.8-6.2,6.2-6.2h237.5c3.5,0,6.2,2.8,6.2,6.2s-2.8,6.2-6.2,6.2h0Z"/>
  <path class="st0" d="M681.2,500h-187.5c-3.5,0-6.2-2.8-6.2-6.2s2.8-6.2,6.2-6.2h187.5c3.5,0,6.2,2.8,6.2,6.2s-2.8,6.2-6.2,6.2Z"/>
  <path class="st0" d="M643.7,525h-112.5c-3.4,0-6.2-2.8-6.2-6.2h0c0-3.5,2.8-6.3,6.2-6.3h112.5c3.4,0,6.2,2.8,6.2,6.2h0c0,3.5-2.8,6.3-6.2,6.3Z"/>
  <path class="st0" d="M331.3,475H93.8c-3.5,0-6.2-2.8-6.2-6.2,0-3.4,2.8-6.2,6.2-6.2h237.5c3.5,0,6.2,2.8,6.2,6.2s-2.8,6.2-6.2,6.2Z"/>
  <path class="st0" d="M306.3,500H118.8c-3.5,0-6.2-2.8-6.2-6.2s2.8-6.2,6.2-6.2h187.5c3.5,0,6.2,2.8,6.2,6.2s-2.8,6.2-6.2,6.2Z"/>
  <path class="st0" d="M268.8,525h-112.5c-3.5,0-6.2-2.8-6.2-6.2,0-3.4,2.8-6.2,6.2-6.2h112.5c3.4,0,6.2,2.8,6.2,6.2h0c0,3.5-2.8,6.3-6.2,6.3h0Z"/>
  <path class="st0" d="M493.7,362.5c-3.5,0-6.2-2.8-6.3-6.2,0-1.7.7-3.3,1.8-4.4l75-75c2.5-2.4,6.4-2.3,8.8.2,2.3,2.4,2.3,6.2,0,8.6l-75,75c-1.2,1.2-2.8,1.8-4.4,1.8h0Z"/>
  <path class="st0" d="M606.2,325c-1.7,0-3.2-.7-4.4-1.8l-37.5-37.5c-2.4-2.5-2.3-6.5.2-8.8,2.4-2.3,6.2-2.3,8.6,0l37.5,37.5c2.4,2.4,2.4,6.4,0,8.8-1.2,1.2-2.8,1.8-4.4,1.8Z"/>
  <path class="st0" d="M606.2,325c-3.5,0-6.2-2.8-6.2-6.3,0-1.7.7-3.2,1.8-4.4l100-100c2.4-2.5,6.4-2.6,8.8-.2,2.5,2.4,2.6,6.4.2,8.8,0,0-.1.1-.2.2l-100,100c-1.2,1.2-2.8,1.8-4.4,1.8Z"/>
  <path class="st0" d="M706.2,250c-3.5,0-6.2-2.8-6.2-6.2v-25c0-3.5,2.8-6.2,6.2-6.2s6.2,2.8,6.2,6.2v25c0,3.5-2.8,6.2-6.2,6.2Z"/>
  <path class="st0" d="M706.2,225h-25c-3.5,0-6.2-2.8-6.2-6.2s2.8-6.2,6.2-6.2h25c3.5,0,6.2,2.8,6.2,6.2s-2.8,6.2-6.2,6.2Z"/>
</svg>