<?xml version="1.0" encoding="UTF-8"?>
<svg id="Layer_1" xmlns="http://www.w3.org/2000/svg" version="1.1" viewBox="0 0 800 800">
  <!-- Generator: Adobe Illustrator 29.5.1, SVG Export Plug-In . SVG Version: 2.1.0 Build 141)  -->
  <defs>
    <style>
      .st0 {
        fill: var(--foreground);
      }
    </style>
  </defs>
  <path class="st0" d="M273.4,334c-19.1,0-38.2-7.3-52.8-21.8-14.1-14.1-21.9-32.9-21.9-52.8s7.8-38.7,21.9-52.8c5.5-5.6,11.9-10.2,18.9-13.8,3.1-1.5,6.8-.3,8.4,2.7,1.6,3.1.4,6.8-2.7,8.4-5.8,3-11.1,6.8-15.7,11.5-11.8,11.8-18.3,27.4-18.3,44s6.5,32.2,18.3,44c24.2,24.2,63.7,24.2,87.9,0,2.4-2.4,6.4-2.4,8.8,0h0c2.4,2.4,2.4,6.4,0,8.8h0c-14.5,14.6-33.7,21.8-52.8,21.8h0ZM594.9,316c-3.4,0-6.2-2.8-6.2-6.2,0-.9.2-1.9.6-2.7,4.1-8.5,6.2-17.6,6.2-27.1,0-34.3-27.9-62.2-62.2-62.2-3.4,0-6.2-2.8-6.2-6.2h0c0-3.5,2.8-6.2,6.2-6.3h0c41.2,0,74.7,33.5,74.7,74.7s-2.5,22.4-7.4,32.6c-1,2.2-3.2,3.5-5.6,3.5h0Z"/>
  <path class="st0" d="M571.8,229.5c-3.5,0-6.3-2.8-6.2-6.3,0-.6,0-1.1.2-1.7,1.6-5.5,2.3-11.2,2.3-17,0-32.6-24.4-59.2-56.9-62-3.4-.3-6-3.3-5.7-6.7,0,0,0,0,0,0,.3-3.4,3.5-6,6.7-5.7,38.9,3.3,68.3,35.3,68.3,74.4s-.9,13.8-2.8,20.4c-.8,2.7-3.2,4.5-6,4.5ZM341.8,361.4c-26.6,0-51.5-10.4-70.2-29.2-2.4-2.5-2.4-6.4,0-8.8,0,0,0,0,0,0,2.5-2.4,6.4-2.4,8.8,0,0,0,0,0,0,0,16.3,16.4,38,25.5,61.3,25.5s49.5,0,65.2-12.3c2.7-2.1,6.6-1.7,8.7,1,0,0,0,0,0,0,2.1,2.7,1.7,6.6-1.1,8.8h0c-17.1,13.5-49.8,15-73,15h0Z"/>
  <path class="st0" d="M519.7,180.1c-3.4,0-6.2-2.8-6.2-6.2h0c0-47.5-38.6-86.1-86.1-86.1s-86.1,38.6-86.1,86.1c0,3.4-2.8,6.2-6.2,6.2h0c-3.4,0-6.2-2.8-6.2-6.2h0c0-54.4,44.2-98.6,98.6-98.6s98.6,44.2,98.6,98.6c0,3.4-2.8,6.2-6.2,6.2h0ZM478.6,388.7c-31.5,0-60.3-14.4-79.1-39.6-2.1-2.8-1.5-6.7,1.3-8.7h0c2.8-2.1,6.7-1.5,8.7,1.3,16.4,22,41.6,34.6,69.1,34.6s26.3-3,38.3-8.9c3-1.5,6.8-.3,8.4,2.8,1.5,3.1.3,6.8-2.8,8.4,0,0,0,0,0,0-13.7,6.8-28.4,10.2-43.8,10.2h0Z"/>
  <path class="st0" d="M249.3,251.9c-2.5,0-4.8-1.5-5.7-3.8-5.4-12.4-8.1-25.6-8.1-39.3,0-54.4,44.2-98.6,98.6-98.6s13.7.7,20.5,2.1c3.4.7,5.5,4,4.8,7.4,0,0,0,0,0,0-.7,3.4-4,5.6-7.4,4.8-5.9-1.2-11.9-1.9-17.9-1.9-47.5,0-86.1,38.6-86.1,86.1s2.4,23.5,7.1,34.3c1.4,3.2,0,6.8-3.3,8.2-.8.3-1.6.5-2.5.5ZM638.7,327.3c-3.4,0-6.2-2.8-6.2-6.2,0-1.4.4-2.7,1.3-3.8,8.1-10.8,12.4-23.8,12.4-37.4,0-27.4-17.5-51.2-43.5-59.3-3.3-1.1-5-4.7-3.9-7.9,1.1-3.1,4.4-4.9,7.6-4,31.3,9.7,52.3,38.4,52.3,71.3s-5.2,31.9-14.9,44.9c-1.2,1.6-3,2.5-5,2.5Z"/>
  <path class="st0" d="M622.4,229.5c-3.4,0-6.2-2.8-6.2-6.2,0-.6,0-1.1.2-1.7,1.5-5.5,2.3-11.2,2.3-17,0-27.4-17.5-51.2-43.5-59.3-3.3-1-5.1-4.5-4.1-7.8h0c1-3.3,4.5-5.2,7.8-4.1,31.3,9.8,52.2,38.4,52.2,71.3s-.9,13.8-2.8,20.3c-.8,2.7-3.2,4.6-6,4.6h0ZM577.3,439.7c-36.9,0-55.2-32.3-55.4-32.7-1.7-3-.6-6.8,2.5-8.5,3-1.7,6.8-.6,8.5,2.4.9,1.7,23.2,40.4,69.8,20.6,33.1-14,21.9-48.3,21.4-49.7-1.1-3.3.6-6.8,3.9-7.9,0,0,0,0,0,0,3.3-1.1,6.8.6,7.9,3.9,0,0,0,0,0,0,5.5,16.1,6.6,50.5-28.3,65.3-11.2,4.7-21.3,6.6-30.3,6.6ZM587.4,537.4c-.3,0-.7,0-1,0-3.4-.6-5.7-3.8-5.2-7.2,8-49.2.4-71.6.3-71.8-1.1-3.2.5-6.8,3.8-8,3.3-1.1,6.8.5,8,3.7.4,1,8.9,25.2.3,78.1-.5,3-3.1,5.2-6.2,5.2h0ZM612.4,537.4c-3.5,0-6.3-2.8-6.2-6.3,0-.4,0-.9.1-1.3,11.8-53.3.4-83.5.3-83.8-1.3-3.2.3-6.8,3.5-8.1,3.2-1.3,6.8.3,8.1,3.5.5,1.3,13.1,33.7.3,91.1-.6,2.9-3.2,4.9-6.1,4.9h0Z"/>
  <path class="st0" d="M615.1,425.3c-15.6,0-23.4-12.4-25.3-19.6-.9-3.3,1-6.8,4.4-7.7,3.3-.9,6.7,1,7.7,4.3.6,2.1,4.2,12.1,16.2,10.2,3.4-.4,6.6,1.8,7.1,5.2.5,3.4-1.8,6.6-5.2,7.1,0,0,0,0,0,0-1.6.2-3.2.4-4.8.4h0ZM593.8,437.5c-.4,0-.8,0-1.2-.1-24.9-4.8-30.1-24.2-30.3-25-.9-3.3,1.2-6.7,4.5-7.6,0,0,0,0,0,0,3.4-.8,6.7,1.2,7.6,4.5.2.6,3.8,12.6,20.5,15.8,3.4.6,5.6,3.9,5,7.3-.6,2.9-3.1,5.1-6.1,5.1h0ZM300.1,524.9c-1.6,0-3.1-.6-4.3-1.7-2.3-2.1-2.6-5.6-.8-8.2l55.4-77.6h-37.8c-2.5,0-4.8-1.5-5.8-3.9-1-2.3-.4-5,1.4-6.8l50-50c2.4-2.4,6.4-2.4,8.8,0s2.4,6.4,0,8.8l-39.3,39.3h34.9c3.5,0,6.2,2.8,6.2,6.3,0,1.3-.4,2.6-1.2,3.6l-35.2,49.3,87.6-71.7h-32.5c-2.5,0-4.8-1.5-5.8-3.8-1-2.3-.5-5,1.3-6.8l25-25.6c2.4-2.5,6.4-2.5,8.8,0s2.5,6.4,0,8.8l-14.6,15h35.1c3.5,0,6.2,2.8,6.2,6.3,0,1.9-.8,3.6-2.3,4.8l-137.4,112.4c-1.1.9-2.5,1.4-4,1.4h0Z"/>
  <path class="st0" d="M558.2,389.8c-16.7,0-32.2-5.8-41.7-11.5-2.9-1.8-3.9-5.6-2.1-8.6,1.8-2.9,5.5-3.9,8.5-2.2,1.9,1.1,46.2,26.7,74.2-9.3,20.9-26.9-1.1-65.8-1.3-66.2-1.7-3-.7-6.8,2.3-8.5,3-1.7,6.8-.7,8.5,2.3,0,0,0,0,0,0,1.1,1.9,26.4,46.6.3,80.2-14,18-31.9,23.9-48.7,23.9Z"/>
  <path class="st0" d="M637.3,799.7h-349.8c-3.4,0-6.2-2.8-6.2-6.2h0v-80.3c-99,12.3-154.2,4.8-175.2-24.4-15.8-22-9.7-52.6-.8-80.4l-12.9-9.8c-2.3-1.8-3.1-4.9-1.9-7.5l6.5-14.4-11.1-11c-1.4-1.4-2.1-3.4-1.8-5.3l9.1-63.1-45.9-23c-1.5-.8-2.7-2.1-3.2-3.7-.5-1.6-.3-3.4.5-4.9l81.2-146.3c-17.6-78.4-2.8-150,42.8-207.4C223.5,43.1,321.4.3,424.2.3s111.1,12.8,158.1,37c91.5,47.1,147.5,110.4,166.5,188.1,32.4,132.7-52,271.2-89.9,324.6-50,70.6-15.8,240.5-15.4,242.2.4,1.8,0,3.8-1.3,5.2-1.2,1.5-3,2.3-4.8,2.3h0ZM293.8,787.2h336c-6.3-34.7-28.6-177.4,18.9-244.5,36.8-52,119.1-186.7,87.9-314.4-18.1-74.1-71.9-134.6-160.1-180-45.2-23.3-97.9-35.6-152.4-35.6-99.1,0-193.2,41-245.6,107-43.6,54.8-57.3,123.7-39.9,199.1.3,1.5.1,3.1-.6,4.4l-79.2,142.7,44.1,22.1c2.4,1.2,3.8,3.8,3.4,6.5l-9.3,64.4,11.9,11.9c1.8,1.8,2.4,4.6,1.3,7l-6.2,13.8,12.4,9.5c2.1,1.6,3,4.4,2.1,7-12.2,36.7-12.9,58.7-2.3,73.4,18.2,25.2,73.3,31.2,170.5,18.4,1.8-.2,3.6.3,4.9,1.5,1.4,1.2,2.1,2.9,2.1,4.7v81.2h0Z"/>
</svg>