<?xml version="1.0" encoding="UTF-8"?>
<svg id="Layer_1" xmlns="http://www.w3.org/2000/svg" version="1.1" viewBox="0 0 800 800">
  <!-- Generator: Adobe Illustrator 29.5.1, SVG Export Plug-In . SVG Version: 2.1.0 Build 141)  -->
  <defs>
    <style>
      .st0 {
        fill: var(--foreground);
      }
    </style>
  </defs>
  <path class="st0" d="M510.9,539.6c-3,0-5.6-2.2-6.1-5.1l-52.1-295.3c-.6-3.4,1.6-6.6,5-7.2,0,0,0,0,0,0,3.4-.7,6.6,1.7,7.2,5.1l52.1,295.3c.6,3.4-1.7,6.6-5.1,7.2,0,0,0,0,0,0-.4,0-.7.1-1.1,0h0ZM517.4,576.6c-3,0-5.6-2.2-6.1-5.1-5.7-32.2-160.9-47.7-257.4-49.9-3.4,0-6.2-2.9-6.1-6.4,0,0,0,0,0,0,0-3.5,2.9-6,6.4-6.1,43.4,1,260.3,8.6,269.5,60.2.6,3.4-1.7,6.6-5.1,7.2,0,0,0,0,0,0-.4,0-.7.1-1.1,0h0Z"/>
  <path class="st0" d="M223.6,349.2c-3.5,0-6.2-2.8-6.2-6.2,0-2.8,1.9-5.3,4.6-6,65.7-18.5,234.2-78.7,224.3-134.7-.6-3.4,1.6-6.6,5-7.2,0,0,0,0,0,0,3.4-.6,6.6,1.7,7.2,5h0c6,33.8-32.1,69.3-113.1,105.4-58.6,26.1-119.5,43.4-120.1,43.5-.6.2-1.1.2-1.7.2h0Z"/>
  <path class="st0" d="M452.3,207.4c-3,0-5.6-2.2-6.1-5.2-.6-3.4,1.6-6.6,5-7.2,0,0,0,0,0,0l24.6-4.3c3.4-.6,6.6,1.7,7.2,5.1.6,3.4-1.7,6.6-5.1,7.2l-24.6,4.3c-.4,0-.7,0-1.1,0Z"/>
  <path class="st0" d="M542,572.2c-3,0-5.6-2.2-6.1-5.1l-65.1-369.1c-.6-3.4,1.6-6.6,5-7.2,0,0,0,0,0,0,3.4-.6,6.6,1.7,7.2,5.1l65.1,369.1c.6,3.4-1.7,6.6-5.1,7.2,0,0,0,0,0,0-.4,0-.7.1-1.1,0h0Z"/>
  <path class="st0" d="M517.4,576.6c-3,0-5.6-2.2-6.1-5.1-.6-3.4,1.7-6.6,5-7.2,0,0,0,0,0,0l24.6-4.3c3.4-.6,6.6,1.7,7.2,5.1.6,3.4-1.7,6.6-5.1,7.2,0,0,0,0,0,0l-24.6,4.3c-.4,0-.7.1-1.1,0h0ZM118.6,545.4c-3,0-5.6-2.2-6.1-5.1l-30.4-172.3c-.6-3.4,1.7-6.6,5.1-7.2,0,0,0,0,0,0l135.3-23.9c3.4-.6,6.6,1.7,7.2,5.1.6,3.4-1.7,6.6-5,7.2,0,0,0,0,0,0l-129.2,22.8,28.2,159.9,129.2-22.8c3.4-.6,6.6,1.6,7.2,5,0,0,0,0,0,0,.6,3.4-1.7,6.6-5,7.2,0,0,0,0,0,0l-135.4,23.9c-.4,0-.7.1-1.1,0Z"/>
  <path class="st0" d="M118.6,545.4c-.2,0-.4,0-.6,0l-90.5-9.4c-2.8-.3-5-2.4-5.5-5.1L.3,407.8c-.5-2.7.9-5.5,3.4-6.7l81.8-39.8c1.8-.9,3.8-.8,5.6,0,1.7.9,3,2.5,3.3,4.5l30.4,172.3c.3,1.9-.2,3.9-1.6,5.3-1.2,1.3-2.8,2-4.6,2h0ZM33.5,524l77.6,8.1-27.5-155.9-70.1,34.1s20.1,113.8,20.1,113.8ZM249.6,496.9c-3,0-5.6-2.2-6.1-5.1l-21.7-123.1c-.6-3.4,1.7-6.6,5.1-7.2,0,0,0,0,0,0,3.4-.6,6.6,1.7,7.2,5.1l21.7,123.1c.6,3.4-1.6,6.6-5,7.2,0,0,0,0,0,0-.4,0-.7,0-1.1,0h0Z"/>
  <path class="st0" d="M35.4,433.2c-2.3,0-4.4-1.3-5.5-3.3-1.6-3-.5-6.8,2.5-8.5,0,0,0,0,0,0l34.7-18.8c3-1.6,6.8-.5,8.5,2.5,1.6,3,.5,6.8-2.5,8.5,0,0,0,0,0,0l-34.7,18.8c-.9.5-1.9.8-3,.8h0ZM87.5,512.8c-.3,0-.6,0-.9,0l-39.1-5.8c-3.4-.5-5.8-3.7-5.3-7.1,0,0,0,0,0,0,.5-3.4,3.7-5.7,7.1-5.3l39.1,5.8c3.4,0,6.2,2.8,6.2,6.3,0,3.4-2.8,6.2-6.3,6.2-.3,0-.6,0-.9,0h0ZM41.9,470.1c-3,0-5.6-2.2-6.1-5.1-.6-3.4,1.7-6.6,5.1-7.2l36.9-6.5c3.4-.6,6.6,1.7,7.2,5,.6,3.4-1.7,6.6-5.1,7.2l-36.9,6.5c-.4,0-.7.1-1.1,0ZM99.4,364.8c-3,0-5.6-2.2-6.1-5.2-.6-3.4,1.7-6.6,5.1-7.2,0,0,0,0,0,0l24.6-4.3c3.4-.6,6.6,1.7,7.2,5.1.6,3.4-1.7,6.6-5.1,7.2,0,0,0,0,0,0l-24.6,4.3c-.4,0-.7,0-1.1,0ZM303.1,728.5c-2.5,0-4.7-1.4-5.7-3.7l-62.9-141.1c-1.4-3.1,0-6.8,3.1-8.2,0,0,0,0,0,0,3.2-1.4,6.9,0,8.2,3.2l62.9,141.1c1.4,3.1,0,6.8-3.1,8.2-.8.4-1.7.5-2.5.5h0ZM229.3,741.5c-2.5,0-4.7-1.5-5.7-3.7l-62.9-141.1c-1.3-3.2.1-6.8,3.3-8.2,3.1-1.3,6.7,0,8.1,3.1l62.9,141.1c1.4,3.1,0,6.8-3.1,8.2,0,0,0,0,0,0-.8.4-1.7.6-2.5.5Z"/>
  <path class="st0" d="M217,743.7c-3,0-5.6-2.2-6.1-5.2-.6-3.4,1.6-6.6,5-7.2,0,0,0,0,0,0l98.4-17.4c3.4-.6,6.6,1.7,7.2,5.1.6,3.4-1.7,6.6-5,7.2,0,0,0,0,0,0l-98.4,17.4c-.4,0-.7,0-1.1,0h0ZM137.4,580.1c-3,0-5.6-2.2-6.1-5.1l-2.4-13.8c-.6-3.4,1.7-6.6,5.1-7.2,3.4-.7,6.6,1.7,7.2,5.1l2.4,13.8c.6,3.4-1.7,6.6-5,7.2,0,0,0,0,0,0-.4,0-.7.1-1.1,0h0Z"/>
  <path class="st0" d="M137.4,580.1c-3.4,0-6.2-2.8-6.2-6.3,0-3,2.2-5.6,5.2-6.1l123.1-21.3c3.4-.6,6.6,1.7,7.2,5.1,0,0,0,0,0,0,.6,3.4-1.7,6.6-5.1,7.2,0,0,0,0,0,0l-123.1,21.3c-.4,0-.7,0-1.1,0h0Z"/>
  <path class="st0" d="M260.5,558.8c-3,0-5.6-2.2-6.1-5.1l-2.2-12.3c-.6-3.4,1.7-6.6,5-7.2,0,0,0,0,0,0,3.4-.6,6.6,1.7,7.2,5l2.2,12.3c.6,3.4-1.6,6.6-5,7.2,0,0,0,0,0,0-.4,0-.7.1-1.1,0h0Z"/>
  <path class="st0" d="M568.7,144c-3.4,0-6.3-2.8-6.3-6.2s2.7-6.2,6.2-6.2h.1c3.5,0,6.2,2.8,6.2,6.2s-2.8,6.2-6.2,6.2Z"/>
  <path class="st0" d="M606.1,144c-3.4,0-6.3-2.8-6.3-6.2s2.7-6.2,6.2-6.2h.1c3.5,0,6.2,2.8,6.2,6.2s-2.8,6.2-6.2,6.2h0Z"/>
  <path class="st0" d="M668.2,668.7c-44.8,0-81.2-36.4-81.2-81.2s36.4-81.2,81.2-81.2,81.2,36.4,81.2,81.2c0,44.8-36.4,81.2-81.2,81.2ZM668.2,518.8c-37.9,0-68.7,30.8-68.7,68.7s30.8,68.7,68.7,68.7,68.7-30.8,68.7-68.7-30.8-68.7-68.7-68.7Z"/>
  <path class="st0" d="M587,218.9c-34.4,0-62.5-28-62.5-62.5s28-62.5,62.5-62.5,62.5,28,62.5,62.5c0,34.4-28,62.5-62.5,62.5ZM587,106.5c-27.6,0-50,22.4-50,50s22.4,50,50,50,50-22.4,50-50-22.4-50-50-50h0Z"/>
  <path class="st0" d="M687.4,468.8c-62,0-112.4-50.5-112.4-112.5s50.4-112.4,112.4-112.4,112.4,50.4,112.4,112.4-50.5,112.5-112.4,112.5ZM687.4,256.4c-55.1,0-100,44.8-100,100s44.8,100,100,100,100-44.8,100-100-44.8-100-100-100Z"/>
  <path class="st0" d="M668.2,633.3c-.9,0-1.7-.2-2.5-.5-1.7-.7-41.2-18.7-41.2-51.5s12.1-27.1,27.1-27.1,11.9,2.1,16.7,5.8c4.7-3.8,10.6-5.8,16.7-5.8,14.9,0,27.1,12.2,27.1,27.1,0,32.8-39.5,50.8-41.2,51.5-.8.4-1.7.5-2.5.5ZM651.6,566.7c-8,0-14.6,6.6-14.6,14.6,0,20.7,23.4,34.7,31.2,38.8,7.9-4.1,31.2-18.2,31.2-38.8s-6.6-14.6-14.6-14.6-8.8,2.2-11.6,5.9c-1.2,1.6-3,2.5-5,2.5h0c-2,0-3.8-.9-5-2.5-2.8-3.8-7.1-6-11.7-6Z"/>
  <path class="st0" d="M731.1,406.4h-50c-1.7,0-3.2-.7-4.4-1.8l-10.7-10.7h-9.9c-3.4,0-6.2-2.8-6.2-6.2h0v-37.5c0-3.4,2.8-6.2,6.2-6.2h0s8.4-.5,21-11c13.5-11.3,23.1-34.8,23.2-35.1,1-2.4,3.2-3.9,5.8-3.9h12.5c3.4,0,6.2,2.8,6.2,6.2h0v31.2h6.2c1.7,0,3.2.7,4.4,1.8,15,15,15,56.3,0,71.3-1.2,1.2-2.8,1.8-4.4,1.8h0ZM683.7,393.9h44.5c8-11.1,8-38.9,0-50h-9.6c-3.4,0-6.2-2.8-6.2-6.2h0v-31.2h-2.2c-3.6,7.9-12.7,25.6-25,36-9.6,8.1-17.6,11.5-22.8,12.9v26h6.2c1.7,0,3.2.7,4.4,1.8l10.7,10.7h0Z"/>
  <path class="st0" d="M656.1,406.4h-37.5c-3.4,0-6.2-2.8-6.2-6.2h0v-62.5c0-3.4,2.8-6.2,6.2-6.2h37.5c3.4,0,6.2,2.8,6.2,6.2h0v62.5c0,3.4-2.8,6.2-6.2,6.2h0ZM624.9,393.9h25v-50h-25v50Z"/>
  <path class="st0" d="M587,194c-19.8,0-25-12.3-25-18.7,0-3.4,2.8-6.2,6.2-6.2h0c3.4,0,6.2,2.7,6.2,6.1,0,1.1,1.1,6.4,12.5,6.4s12.4-5.4,12.5-6.4c.2-3.4,3.5-5.9,6.4-6,3.4.1,6.1,2.8,6.1,6.1,0,6.5-5.2,18.7-25,18.7h0Z"/>
  <path class="st0" d="M749.8,156.2c-27.6,0-50-22.4-50-50s22.4-50,50-50,50,22.4,50,50c0,27.6-22.4,50-50,50h0ZM749.8,68.8c-20.7,0-37.5,16.8-37.5,37.5s16.8,37.5,37.5,37.5,37.5-16.8,37.5-37.5-16.8-37.5-37.5-37.5Z"/>
  <path class="st0" d="M749.8,181.2c-27.6,0-50-22.4-50-50s2.8-6.2,6.2-6.2,6.2,2.8,6.2,6.2c0,20.7,16.8,37.5,37.5,37.5s37.5-16.8,37.5-37.5,2.8-6.2,6.2-6.2,6.2,2.8,6.2,6.2c0,27.6-22.4,50-50,50h0Z"/>
  <path class="st0" d="M749.8,131.3c-3.4,0-6.2-2.8-6.2-6.2h0v-37.5c0-3.5,2.8-6.2,6.2-6.2s6.2,2.8,6.2,6.2v37.5c0,3.4-2.8,6.2-6.2,6.2h0Z"/>
  <path class="st0" d="M768.6,112.5h-37.5c-3.5,0-6.3-2.7-6.4-6.1,0-3.5,2.7-6.3,6.1-6.4,0,0,.2,0,.3,0h37.5c3.5,0,6.2,2.9,6.1,6.4,0,3.3-2.8,6-6.1,6.1h0ZM706.1,137.5c-3.4,0-6.2-2.8-6.2-6.2h0v-25c0-3.5,2.8-6.2,6.2-6.2s6.2,2.8,6.2,6.2v25c0,3.4-2.8,6.2-6.2,6.2h0ZM793.6,137.5c-3.4,0-6.2-2.8-6.2-6.2h0v-25c0-3.5,2.8-6.2,6.2-6.2s6.2,2.8,6.2,6.2v25c0,3.4-2.8,6.2-6.2,6.2h0Z"/>
</svg>