<?xml version="1.0" encoding="UTF-8"?>
<svg id="Layer_1" data-name="Layer 1" xmlns="http://www.w3.org/2000/svg" viewBox="0 0 50 50">
  <defs>
    <style>
      .cls-1 {
        fill: #292524;
      }

      .cls-2 {
        fill: #fff7ed;
      }
    </style>
  </defs>
  <g>
    <path class="cls-2" d="M35.34,50H14.66c-8.08,0-14.66-6.57-14.66-14.66V14.5C0,6.51,6.51,0,14.5,0h20.84c8.08,0,14.66,6.57,14.66,14.66v20.69c0,8.08-6.57,14.66-14.66,14.66Z"/>
    <path class="cls-1" d="M35.34,50H14.66c-8.08,0-14.66-6.57-14.66-14.66V14.5C0,6.51,6.51,0,14.5,0h20.84c8.08,0,14.66,6.57,14.66,14.66v20.69c0,8.08-6.57,14.66-14.66,14.66ZM14.5,2.53C7.9,2.53,2.53,7.9,2.53,14.5v20.84c0,6.69,5.44,12.12,12.12,12.12h20.69c6.69,0,12.12-5.44,12.12-12.12V14.66c0-6.69-5.44-12.12-12.12-12.12H14.5Z"/>
  </g>
  <path class="cls-1" d="M29.22,36.44l-4.13-8.78-4,8.78-9.41-20.09h4.53l3.11,6.76c.23.48.73.83,1.29.83.76,0,1.39-.63,1.39-1.42,0-.18-.03-.38-.13-.56l-2.51-5.62h4.81l3.14,6.81c.23.48.73.83,1.29.83.76,0,1.39-.66,1.39-1.42,0-.2-.03-.38-.13-.56l-2.53-5.67h11.01l-9.13,20.09Z"/>
</svg>