<?xml version="1.0" encoding="UTF-8"?>
<svg id="Layer_1" data-name="Layer 1" xmlns="http://www.w3.org/2000/svg" viewBox="0 0 75 75">
  <defs>
    <style>
      .cls-1 {
        fill: #fff7ed;
      }
    </style>
  </defs>
  <path class="cls-1" d="M33.81,37.45l-4.54-9.67-4.4,9.67L14.5,15.33h4.99l3.43,7.44c.25.53.81.92,1.42.92.84,0,1.53-.7,1.53-1.56,0-.19-.03-.42-.14-.61l-2.76-6.19h5.29l3.46,7.5c.25.53.81.92,1.42.92.84,0,1.53-.72,1.53-1.56,0-.22-.03-.42-.14-.61l-2.79-6.24h12.12l-10.06,22.12Z"/>
  <path class="cls-1" d="M49.67,36.53V15.44h6.35v21.09h-6.35Z"/>
  <path class="cls-1" d="M25.38,62.79v-4.6c0-.92-.78-1.67-1.7-1.67s-1.67.78-1.67,1.7v4.57h-4.18v-21.06h.14l12.68,11.62-.03-6.44-5.68-5.18h10.09v21.06h-9.64Z"/>
  <path class="cls-1" d="M53.08,63.01v-.03c-5.82-.14-10.5-4.88-10.5-10.73s4.65-10.59,10.5-10.73v-.03h3.68v6.66l-4.49-3.51v12.48h4.49v5.88h-3.68Z"/>
</svg>