<?xml version="1.0" encoding="UTF-8"?>
<svg id="Layer_1" data-name="Layer 1" xmlns="http://www.w3.org/2000/svg" viewBox="0 0 342.54 53.16">
  <defs>
    <style>
      .cls-1 {
        fill: #292524;
      }
    </style>
  </defs>
  <g>
    <path class="cls-1" d="M218.98,45.99l-7.32-15.59-7.1,15.59-16.71-35.67h8.04l5.53,11.99c.4.85,1.3,1.48,2.29,1.48,1.35,0,2.47-1.12,2.47-2.52,0-.31-.04-.67-.22-.99l-4.45-9.97h8.54l5.57,12.09c.4.85,1.3,1.48,2.29,1.48,1.35,0,2.47-1.17,2.47-2.52,0-.36-.04-.67-.23-.99l-4.49-10.06h19.54l-16.22,35.67Z"/>
    <path class="cls-1" d="M244.19,44.19V10.18h10.24v34.01h-10.24Z"/>
    <path class="cls-1" d="M280.08,44.32v-7.41c0-1.48-1.26-2.7-2.74-2.7s-2.69,1.26-2.69,2.74v7.37h-6.74V10.36h.23l20.44,18.73-.04-10.38-9.17-8.36h16.26v33.96h-15.54Z"/>
    <path class="cls-1" d="M323.07,44.37v-.04c-9.39-.22-16.94-7.86-16.94-17.3s7.5-17.07,16.94-17.3v-.04h5.93v10.74l-7.23-5.66v20.13h7.23v9.48h-5.93Z"/>
  </g>
  <g>
    <path class="cls-1" d="M19.06,27.84c-1.18,0-1.78.02-2.69.12.1-.77.14-1.37.14-2.35v-5.28c0-1.01-.05-1.58-.14-2.3.94.1,1.46.12,2.64.12h10.06c1.27,0,1.87-.02,2.81-.12-.1.72-.14,1.3-.14,2.23v5.5c0,.94.02,1.49.14,2.21-.91-.1-1.51-.12-2.66-.12h-4.68v3.14h7.51c1.06,0,1.75-.05,2.42-.14v1.44c-.67-.1-1.39-.14-2.42-.14h-7.51v3.98c0,1.32.05,2.09.17,2.69h-1.58c.1-.53.14-1.3.14-2.69v-3.98h-7.03c-1.01,0-1.73.05-2.42.14v-1.44c.65.1,1.37.14,2.42.14h7.03v-3.14h-4.2ZM17.74,22.36h12.77v-3.1h-12.77v3.1ZM17.74,26.73h12.77v-3.26h-12.77v3.26Z"/>
    <path class="cls-1" d="M40.93,19.46c-1.03.29-1.51.41-2.86.67-.17-.38-.31-.62-.62-1.06,2.23-.34,4.32-.89,5.57-1.51.41-.19.65-.36.94-.58l.89.96q-1.7.82-2.76,1.15v4.13h1.06c.89,0,1.32-.02,1.78-.1v1.25c-.53-.07-.96-.1-1.8-.1h-1.01c.6,1.85,1.22,2.98,2.52,4.39-.31.26-.5.55-.74.96-.98-1.37-1.44-2.28-1.92-3.84.07,1.46.12,2.74.12,3.84v6.26c0,1.2.05,1.92.14,2.74h-1.44c.1-.84.14-1.56.14-2.71v-5.95c0-1.06.05-2.69.12-4.01-.67,2.83-1.71,5.04-3.26,7.08-.22-.41-.48-.74-.79-1.03,1.66-1.87,3.07-4.75,3.74-7.73h-1.27c-.77,0-1.39.05-1.99.12v-1.3c.58.1,1.18.12,2.02.12h1.44v-3.77ZM57.82,18.19q-.43.12-1.06.26c-.07.02-.24.07-.48.12-3.55.98-7.03,1.56-11.11,1.85-.12-.48-.24-.74-.5-1.15,4.44-.17,10.13-1.18,12.19-2.16l.96,1.08ZM46.97,26.25c-.1.55-.12,1.06-.12,1.99v8.42c0,.98.02,1.49.12,2.02h-1.42c.1-.58.12-1.08.12-2.04v-8.4c0-.91-.02-1.39-.12-1.99h1.42ZM47.82,25.41c-.53-1.61-1.01-2.64-1.92-4.08l1.03-.46c.89,1.44,1.37,2.4,1.97,4.01l-1.08.53ZM49.47,28.1c0-.72-.02-1.25-.1-1.78.62.07,1.1.1,2.09.1h4.39c.98,0,1.54-.02,2.11-.1-.07.5-.1,1.06-.1,1.87v7.99c0,1.22.02,1.87.12,2.47h-1.27v-1.22h-6.1v1.22h-1.27c.1-.6.12-1.32.12-2.45v-8.11ZM51.46,25.1c-.38-1.68-.77-2.83-1.44-4.22l1.08-.34c.82,1.75,1.03,2.35,1.51,4.18l-1.15.38ZM50.62,31.25h6.1v-3.74h-6.1v3.74ZM50.62,36.36h6.1v-4.06h-6.1v4.06ZM54.34,25.17c1.32-1.92,1.94-3.24,2.66-5.57l1.15.62c-.96,2.35-1.61,3.58-2.83,5.45l-.98-.5Z"/>
    <path class="cls-1" d="M79.81,38.35v-1.49h-16.15v1.49h-1.39c.1-.89.14-1.63.14-2.71v-14.83c0-.89-.02-1.56-.12-2.38.91.1,1.68.12,2.74.12h13.44c1.03,0,1.82-.02,2.74-.12-.1.77-.12,1.44-.12,2.35v14.86c0,1.06.05,1.85.14,2.71h-1.42ZM63.65,26.83h7.18v-7.15h-7.18v7.15ZM63.65,35.73h7.18v-7.8h-7.18v7.8ZM72.08,26.83h7.73v-7.15h-7.73v7.15ZM72.08,35.73h7.73v-7.8h-7.73v7.8Z"/>
    <path class="cls-1" d="M84.2,27.96c.74-2.23.96-3.55,1.08-6.36l1.13.29c-.19,2.86-.43,4.3-1.13,6.58l-1.08-.5ZM87.37,38.69c.12-.84.17-1.73.17-2.69v-16.61c0-.86-.05-1.61-.17-2.4h1.56c-.12.77-.17,1.51-.17,2.4v16.61c0,1.01.05,1.9.17,2.69h-1.56ZM90.37,24.33c-.29-1.3-.58-2.11-1.13-3.24l.94-.43c.43.91.82,1.99,1.2,3.22l-1.01.46ZM93.61,19.94c-1.03,0-1.56.02-2.21.12v-1.27c.6.12,1.13.14,2.23.14h3.67c0-.94-.02-1.32-.14-1.94h1.44c-.12.65-.14.98-.14,1.94h4.68c1.18,0,1.68-.02,2.3-.14v1.27c-.62-.1-1.22-.12-2.3-.12h-4.68v1.82h3.86c1.1,0,1.61-.02,2.28-.12v1.22c-.7-.1-1.3-.12-2.28-.12h-3.86v1.97h5.04c1.1,0,1.75-.05,2.4-.14v1.32c-.77-.1-1.56-.14-2.4-.14h-10.18c-1.13,0-1.8.05-2.47.14v-1.32c.65.1,1.27.14,2.47.14h3.98v-1.97h-2.88c-.96,0-1.49.02-2.23.12v-1.22c.67.1,1.18.12,2.26.12h2.86v-1.82h-3.7ZM93.63,36.09c0,1.27.05,2.02.14,2.57h-1.46c.1-.6.12-1.3.12-2.57v-6.72c0-1.15-.02-1.49-.07-2.11.67.07,1.34.1,2.3.1h7.13c1.18,0,1.7-.02,2.21-.12-.07.55-.1,1.3-.1,2.59v6.86c0,1.37-.43,1.73-2.04,1.73-.72,0-1.54-.05-2.52-.12-.07-.55-.17-.84-.36-1.3,1.18.19,2.09.29,2.76.29.82,0,.96-.1.96-.65v-2.18h-9.07v1.63ZM102.7,30.4v-2.02h-9.07v2.02h9.07ZM102.7,33.43v-1.99h-9.07v1.99h9.07Z"/>
    <path class="cls-1" d="M117.44,23.76c.94,0,1.32-.02,1.85-.12v1.3c-.55-.07-.96-.1-1.85-.1h-6.89c-.82,0-1.27.02-1.85.1v-1.3c.55.1.98.12,1.85.12h3.07v-2.74h-2.42c-.79,0-1.22.02-1.75.1v-1.27c.53.07.91.1,1.75.1h2.42v-.79c0-.79-.05-1.42-.17-2.14h1.49c-.12.77-.17,1.32-.17,2.14v.79h2.06c.82,0,1.18-.02,1.73-.1v1.27c-.55-.07-.94-.1-1.73-.1h-2.06v2.74h2.67ZM117.44,28.94c.96,0,1.37-.02,1.85-.12v1.3c-.53-.07-1.01-.1-1.85-.1h-2.64v2.71h2.33c.82,0,1.22-.02,1.73-.1v1.27c-.6-.07-.98-.1-1.73-.1h-2.33v2.64c0,.82.05,1.39.17,2.21h-1.51c.12-.84.17-1.42.17-2.21v-2.64h-2.64c-.79,0-1.18.02-1.75.1v-1.27c.5.07.91.1,1.75.1h2.64v-2.71h-3.05c-.84,0-1.27.02-1.87.1v-1.3c.58.1.96.12,1.87.12h4.58c.77-1.49,1.1-2.35,1.44-3.79l1.1.38c-.43,1.32-.91,2.45-1.42,3.41h1.15ZM111.7,28.7c-.29-1.3-.55-2.16-1.01-3.24l.96-.36c.55,1.3.72,1.82,1.08,3.22l-1.03.38ZM121.14,26.71v9.67c0,.86.05,1.49.17,2.28h-1.51c.12-.86.17-1.42.17-2.28v-16.13c0-.79-.05-1.56-.12-2.21.72.1,1.32.12,2.28.12h5.45c.98,0,1.54-.02,1.94-.1-.05.31-.07.5-.1.94-.17,1.7-.31,2.74-.55,3.41-.31,1.03-.77,1.3-2.06,1.3-.84,0-1.56-.05-2.57-.17-.05-.53-.1-.79-.24-1.25,1.08.22,2.09.34,2.83.34.53,0,.74-.12.89-.43.24-.6.36-1.34.46-2.93h-7.03v6.38h5.45c.94,0,1.44-.02,1.82-.1l.77.77c-.12.29-.17.43-.29.94-.55,2.33-1.39,4.49-2.54,6.48,1.25,1.51,2.33,2.42,4.22,3.65-.38.34-.62.62-.89,1.06-1.68-1.22-2.69-2.14-3.98-3.67-.89,1.32-1.87,2.42-3.26,3.62-.29-.41-.53-.6-.96-.91,1.51-1.18,2.47-2.18,3.5-3.67-1.49-2.11-2.21-3.82-3-7.1h-.84ZM123.08,26.71c.7,2.86,1.27,4.25,2.52,6.07.98-1.75,1.63-3.58,2.18-6.07h-4.71Z"/>
    <path class="cls-1" d="M134.84,22.99c-.62,0-1.13.02-1.97.14v-1.37c.6.1,1.15.14,1.94.14h1.39v-2.38c0-.86-.07-1.66-.17-2.45h1.54c-.1.7-.14,1.54-.14,2.4v2.42h.58c.74,0,1.3-.02,1.92-.12v1.32c-.65-.1-1.2-.12-1.97-.12h-.53v5.06c.91-.46,1.32-.65,2.4-1.25l.02,1.25c-.72.36-1.54.79-2.42,1.25v7.66c0,1.22-.48,1.54-2.33,1.54-.58,0-1.18-.02-1.8-.07-.02-.46-.1-.74-.29-1.25.84.12,1.61.17,2.28.17.72,0,.91-.14.91-.65v-6.82c-.72.34-.82.36-1.78.79-.53.24-.72.34-1.18.55l-.46-1.34c.94-.19,1.42-.36,3.41-1.27v-5.62h-1.37ZM145.74,22h-2.98c-1.15,0-1.94.05-2.45.12v-1.34c.53.1,1.25.12,2.42.12h3v-1.34c0-.84-.07-1.68-.17-2.42h1.54c-.1.7-.14,1.51-.14,2.42v1.34h4.27c1.01,0,1.82-.05,2.47-.14v1.39c-.55-.1-1.49-.14-2.45-.14h-4.3v4.13h3.07c.79,0,1.3-.02,1.66-.1l.7.79c-.22.36-.36.6-.74,1.34-.89,1.7-2.47,3.72-4.18,5.3,2.16,1.87,4.08,2.98,6.84,3.94-.34.38-.58.74-.79,1.25-2.81-1.2-4.97-2.54-6.94-4.39-2.45,2.09-4.66,3.36-7.27,4.25-.17-.41-.41-.77-.74-1.15,2.52-.72,4.73-1.92,7.18-3.91-1.03-1.13-1.82-2.23-2.57-3.58-.5-.96-.72-1.44-1.08-2.66-.67.02-1.03.05-1.56.12v-1.34c.58.1,1.25.14,2.04.14h3.17v-4.13ZM143.26,27.21c.7,2.14,1.66,3.7,3.36,5.45,1.94-1.78,3.17-3.38,4.15-5.45h-7.51Z"/>
    <path class="cls-1" d="M158.89,19.24c-.98,0-1.39.02-2.09.14v-1.39c.6.12,1.13.14,2.11.14h3.82c.94,0,1.37-.02,1.97-.14v1.34c-.62-.07-1.1-.1-1.9-.1h-1.56c-.41,2.71-.74,3.91-1.7,6.29h3c.84,0,1.06,0,1.51-.07-.07.58-.07.84-.07,1.94v7.22c0,.91.02,1.46.1,2.06h-1.32v-1.22h-3.12v2.57h-1.37c.12-.6.14-1.18.14-2.28v-5.57c0-.86.02-1.61.1-2.81-.46,1.08-.96,1.9-1.87,3.12-.29-.48-.53-.79-.86-1.06,2.45-2.88,3.62-5.69,4.22-10.2h-1.1ZM159.63,34.41h3.14v-7.85h-3.14v7.85ZM167.98,19.22c-.94,0-1.63.05-2.3.14v-1.39c.58.1,1.3.14,2.35.14h7.75c1.03,0,1.73-.05,2.38-.14v1.39c-.65-.1-1.37-.14-2.33-.14h-.74v6.91h.94c1.06,0,1.75-.05,2.4-.14v1.42c-.7-.1-1.37-.14-2.4-.14h-.94v8.83c0,.89.05,1.61.17,2.47h-1.58c.12-.89.17-1.58.17-2.47v-8.83h-4.25c-.26,5.5-1.37,8.59-4.13,11.57-.36-.43-.7-.7-1.15-.91,1.61-1.49,2.62-3.12,3.24-5.26.43-1.44.65-2.98.77-5.4h-.86c-1.01,0-1.7.05-2.35.14v-1.42c.65.1,1.3.14,2.35.14h.91v-6.91h-.38ZM169.64,25.2v.94h4.2v-6.91h-4.2v5.98Z"/>
  </g>
</svg>