<?xml version="1.0" encoding="UTF-8"?>
<svg id="Layer_2" data-name="Layer 2" xmlns="http://www.w3.org/2000/svg" viewBox="0 0 178.05 56.54">
  <defs>
    <style>
      .cls-1 {
        fill: #d8e3e8;
      }

      .cls-1, .cls-2, .cls-3, .cls-4, .cls-5, .cls-6, .cls-7 {
        stroke-linejoin: round;
        stroke-width: 2px;
      }

      .cls-1, .cls-3 {
        stroke: #1c1917;
      }

      .cls-2 {
        stroke: #f59e0b;
      }

      .cls-2, .cls-4, .cls-5, .cls-6, .cls-7 {
        fill: none;
        stroke-linecap: round;
      }

      .cls-3 {
        fill: #f8f0e5;
      }

      .cls-8 {
        fill: #1c1917;
      }

      .cls-4 {
        stroke: #ef4444;
      }

      .cls-5 {
        stroke: #8b5cf6;
      }

      .cls-6 {
        stroke: #3b82f6;
      }

      .cls-9 {
        fill: #c1272d;
      }

      .cls-7 {
        stroke: #22c55e;
      }
    </style>
  </defs>
  <g id="Layer_1-2" data-name="Layer 1">
    <path class="cls-3" d="M34.05,42.79l20.46-5.68L38.06,1h-10.81S10.27,5.71,6.8,6.68c-.01,0-.02,0-.03,0-3.02.85-5.31,1.73-5.34,4.54-.04,3.51-.43,30.45-.43,37.23,0,4.73,3.57,7.07,6.8,7.07h34.66l19.55-6.38v-6.38s-1.07-7.45-7.5-5.68L38.07,1l-20.46,5.68-10.37-.12,10.37.12,16.45,36.11c7.98-2.46,8.41,6.38,8.41,6.38v6.38"/>
    <polygon class="cls-1" points="17.61 6.68 38.07 1 51.65 30.82 31.19 36.49 17.61 6.68"/>
    <line class="cls-4" x1="46.95" y1="47.04" x2="46.95" y2="51.67"/>
    <line class="cls-2" x1="49.63" y1="46.21" x2="49.63" y2="50.84"/>
    <line class="cls-7" x1="52.31" y1="45.27" x2="52.31" y2="49.91"/>
    <line class="cls-6" x1="54.98" y1="44.36" x2="54.98" y2="48.99"/>
    <line class="cls-5" x1="57.66" y1="43.42" x2="57.66" y2="48.06"/>
    <path class="cls-9" d="M39.75,23.27l-4.32-3.73-.1,4.91-10.24-8.69,2.57-.66,3.45,3c.25.21.62.32.93.23.42-.11.62-.52.43-.92-.04-.09-.11-.19-.21-.26l-2.81-2.51,2.71-.7,3.42,3.02c.24.21.61.32.91.23.42-.11.61-.53.43-.92-.05-.1-.1-.19-.2-.26l-2.79-2.53,6.14-1.59-.32,11.38Z"/>
    <g>
      <path class="cls-8" d="M93.12,33.49l-5.43-11.56-5.26,11.56-12.39-26.45h5.96l4.1,8.89c.3.63.97,1.1,1.7,1.1,1,0,1.83-.83,1.83-1.87,0-.23-.03-.5-.17-.73l-3.3-7.39h6.33l4.13,8.96c.3.63.97,1.1,1.7,1.1,1,0,1.83-.87,1.83-1.87,0-.27-.03-.5-.17-.73l-3.33-7.46h14.49l-12.02,26.45Z"/>
      <path class="cls-8" d="M111.81,32.16V6.94h7.59v25.22h-7.59Z"/>
      <path class="cls-8" d="M138.42,32.26v-5.5c0-1.1-.93-2-2.03-2s-2,.93-2,2.03v5.46h-5V7.08h.17l15.16,13.89-.03-7.69-6.8-6.2h12.06v25.18h-11.53Z"/>
      <path class="cls-8" d="M171.33,32.29v-.03c-6.96-.17-12.56-5.83-12.56-12.82s5.56-12.66,12.56-12.82v-.03h4.4v7.96l-5.36-4.2v14.92h5.36v7.03h-4.4Z"/>
    </g>
    <g>
      <path class="cls-8" d="M106.74,49.97c-1.61,0-2.92-1.15-2.92-2.56,0-.38.1-.75.29-1.1l1.56,1.65.84-.62-1.26-1.34c-.51-.55-.89-.94-.89-1.69,0-1.16,1.07-2.09,2.39-2.09s2.32.88,2.38,1.99h-1.89l1.47,1.29h-.01c.61.49.97,1.19.97,1.91,0,1.41-1.31,2.56-2.92,2.56Z"/>
      <path class="cls-8" d="M112.64,49.76v-7.3h2.52v7.3h-2.52Z"/>
      <path class="cls-8" d="M121.45,49.79v-1.59c0-.32-.31-.58-.67-.58s-.66.27-.66.59v1.58h-1.65v-7.29h.05l5.02,4.02v-2.23s-2.26-1.79-2.26-1.79h3.99v7.29h-3.82Z"/>
      <path class="cls-8" d="M132.35,49.8h0c-2.31-.06-4.16-1.7-4.16-3.72s1.84-3.67,4.16-3.71h0s1.46,0,1.46,0v2.3l-1.78-1.21v4.32h1.78v2.04h-1.46Z"/>
      <path class="cls-8" d="M136.89,49.69v-7.26h5.57l-1.6,2.36,1.38,1.22-1.38,1.23,1.6,2.45h-5.57ZM139.22,44.16c-.34,0-.62.23-.62.53v2.71c0,.29.28.53.62.53s.61-.25.61-.54v-2.7c0-.29-.28-.53-.61-.53Z"/>
      <path class="cls-8" d="M150.58,49.73h-3.6l2.32-2.01v-3.04h-1.94v-2.19h3.09v5.21c.73,0,1.33.32,1.33,1.01,0,.62-.51,1.02-1.2,1.02Z"/>
      <path class="cls-8" d="M159.74,45.22h-3.19v1.02h2.71l-2.66,3.5h-1.39l1.82-2.4c-.08,0-.14,0-.21,0-1.6,0-2.9-1.17-2.9-2.56s1.31-2.56,2.92-2.56,2.93,1.15,2.93,2.56c0,.14-.02.28-.04.42Z"/>
      <path class="cls-8" d="M165.24,49.89c-1.61,0-2.92-1.15-2.92-2.55,0-.48.23-1.07.53-1.48l2.64-3.48h1.45l-3.77,4.97h2.21v-2.57c1.57.05,2.81,1.18,2.81,2.56s-1.32,2.55-2.93,2.55Z"/>
      <path class="cls-8" d="M175.63,45.74h-.01l-2.98,4.01h-1.45l2.99-4.01c-.54,0-1.07,0-1.6,0-1.04,0-1.88-.72-1.88-1.63s.84-1.63,1.86-1.63h5.47l-2.42,3.25Z"/>
    </g>
  </g>
</svg>