<?xml version="1.0" encoding="UTF-8"?>
<svg id="Layer_2" data-name="Layer 2" xmlns="http://www.w3.org/2000/svg" viewBox="0 0 108.01 43.4">
  <defs>
    <style>
      .cls-1 {
        fill: #1c1917;
      }
    </style>
  </defs>
  <g id="Layer_1-2" data-name="Layer 1">
    <g>
      <path class="cls-1" d="M23.08,26.91l-5.43-11.56-5.26,11.56L0,.47h5.96l4.1,8.89c.3.63.97,1.1,1.7,1.1,1,0,1.83-.83,1.83-1.87,0-.23-.03-.5-.17-.73L10.13.47h6.33l4.13,8.96c.3.63.97,1.1,1.7,1.1,1,0,1.83-.87,1.83-1.87,0-.27-.03-.5-.17-.73L20.62.47h14.49l-12.02,26.45Z"/>
      <path class="cls-1" d="M41.77,25.58V.37h7.59v25.22h-7.59Z"/>
      <path class="cls-1" d="M68.38,25.68v-5.5c0-1.1-.93-2-2.03-2s-2,.93-2,2.03v5.46h-5V.5h.17l15.16,13.89-.03-7.69-6.8-6.2h12.06v25.18h-11.53Z"/>
      <path class="cls-1" d="M101.29,25.71v-.03c-6.96-.17-12.56-5.83-12.56-12.82S94.3.2,101.29.03v-.03h4.4v7.96l-5.36-4.2v14.92h5.36v7.03h-4.4Z"/>
    </g>
    <g>
      <path class="cls-1" d="M36.7,43.4c-1.61,0-2.92-1.15-2.92-2.56,0-.38.1-.75.29-1.1l1.56,1.65.84-.62-1.26-1.34c-.51-.55-.89-.94-.89-1.69,0-1.16,1.07-2.09,2.39-2.09s2.32.88,2.38,1.99h-1.89l1.47,1.29h-.01c.61.49.97,1.19.97,1.91,0,1.41-1.31,2.56-2.92,2.56Z"/>
      <path class="cls-1" d="M42.6,43.19v-7.3h2.52v7.3h-2.52Z"/>
      <path class="cls-1" d="M51.41,43.21v-1.59c0-.32-.31-.58-.67-.58s-.66.27-.66.59v1.58h-1.65v-7.29h.05l5.02,4.02v-2.23s-2.26-1.79-2.26-1.79h3.99v7.29h-3.82Z"/>
      <path class="cls-1" d="M62.31,43.22h0c-2.31-.06-4.16-1.7-4.16-3.72s1.84-3.67,4.16-3.71h0s1.46,0,1.46,0v2.3l-1.78-1.21v4.32h1.78v2.04h-1.46Z"/>
      <path class="cls-1" d="M66.85,43.12v-7.26h5.57l-1.6,2.36,1.38,1.22-1.38,1.23,1.6,2.45h-5.57ZM69.18,37.58c-.34,0-.62.23-.62.53v2.71c0,.29.28.53.62.53s.61-.25.61-.54v-2.7c0-.29-.28-.53-.61-.53Z"/>
      <path class="cls-1" d="M80.54,43.16h-3.6l2.32-2.01v-3.04h-1.94v-2.19h3.09v5.21c.73,0,1.33.32,1.33,1.01,0,.62-.51,1.02-1.2,1.02Z"/>
      <path class="cls-1" d="M89.7,38.64h-3.19v1.02h2.71l-2.66,3.5h-1.39l1.82-2.4c-.08,0-.14,0-.21,0-1.6,0-2.9-1.17-2.9-2.56s1.31-2.56,2.92-2.56,2.93,1.15,2.93,2.56c0,.14-.02.28-.04.42Z"/>
      <path class="cls-1" d="M95.21,43.31c-1.61,0-2.92-1.15-2.92-2.55,0-.48.23-1.07.53-1.48l2.64-3.48h1.45l-3.77,4.97h2.21v-2.57c1.57.05,2.81,1.18,2.81,2.56s-1.32,2.55-2.93,2.55Z"/>
      <path class="cls-1" d="M105.6,39.16h-.01l-2.98,4.01h-1.45l2.99-4.01c-.54,0-1.07,0-1.6,0-1.04,0-1.88-.72-1.88-1.63s.84-1.63,1.86-1.63h5.47l-2.42,3.25Z"/>
    </g>
  </g>
</svg>