<svg xmlns="http://www.w3.org/2000/svg" width="571.66" height="132.46" viewBox="0 0 571.66 132.46"><defs><style>.a{fill:none}.b{clip-path:url(#a)}.c{fill:#393c41}.d{fill:#005aac}.e{fill:#1f7acc}</style><clipPath id="a"><path class="a" d="M-56.56 -46.42H628.75V189.14H-56.56z"/></clipPath></defs><g class="b"><path class="a" d="M0 37.97H571.66V94.66H0z"/><path class="c" d="M370.34 119.54a5.49 5.49 0 0 1-.58 2.65 4.79 4.79 0 0 1-1.57 1.74 6.88 6.88 0 0 1-2.28 1 11.84 11.84 0 0 1-2.68.3h-2.16V132h-4.33v-18h6.59a12.68 12.68 0 0 1 2.75.29 6.7 6.7 0 0 1 2.23.94 4.54 4.54 0 0 1 1.49 1.7 5.61 5.61 0 0 1 .54 2.61zm-4.33 0a1.93 1.93 0 0 0-.25-1 1.79 1.79 0 0 0-.68-.63 3 3 0 0 0-1-.31 8.26 8.26 0 0 0-1.13-.07h-1.9v4.23h1.83a7.26 7.26 0 0 0 1.16-.1 3.13 3.13 0 0 0 1-.36 1.88 1.88 0 0 0 .7-.67 2 2 0 0 0 .26-1.06zM378.69 132v-18h12.06v3.65h-7.88v3.39h7.45v3.47h-7.45v3.73h8.34V132zm36.2-12.46a5.45 5.45 0 0 1-.59 2.64 4.7 4.7 0 0 1-1.57 1.74 6.79 6.79 0 0 1-2.28 1 11.24 11.24 0 0 1-2.68.31h-2.15V132h-4.34v-18h6.59a12 12 0 0 1 2.75.3 6.49 6.49 0 0 1 2.23.93 4.54 4.54 0 0 1 1.49 1.7 5.53 5.53 0 0 1 .55 2.61zm-4.33 0a1.93 1.93 0 0 0-.26-1 1.72 1.72 0 0 0-.68-.63 3 3 0 0 0-1-.3 8.2 8.2 0 0 0-1.12-.08h-1.9v4.23h1.82a6.45 6.45 0 0 0 1.17-.1 3.48 3.48 0 0 0 1-.35 1.89 1.89 0 0 0 .95-1.73zm22.9 12.46l-1.4-3.52h-6.94L423.8 132h-4.71l7.53-18h4.2l7.45 18zm-4.82-13.15l-2.28 6.15h4.51zm30.48 7.82a4.83 4.83 0 0 1-.59 2.47 4.54 4.54 0 0 1-1.54 1.6 6.67 6.67 0 0 1-2.19.88 12.38 12.38 0 0 1-2.52.26h-7.15V114h7.15a11.3 11.3 0 0 1 2.13.21 6.38 6.38 0 0 1 2 .74 3.9 3.9 0 0 1 2 3.66 3.75 3.75 0 0 1-.81 2.47 4.46 4.46 0 0 1-2.13 1.4v.06a5.05 5.05 0 0 1 1.44.46 4.06 4.06 0 0 1 2.24 3.72zm-4.92-7.53a1.44 1.44 0 0 0-.69-1.33 4.11 4.11 0 0 0-2.07-.42h-2.13v3.7h2.33a3.13 3.13 0 0 0 1.89-.49 1.7 1.7 0 0 0 .67-1.46zm.59 7.12a1.59 1.59 0 0 0-.84-1.55 5 5 0 0 0-2.23-.43h-2.41v4.11h2.44a6.57 6.57 0 0 0 1.05-.09 3.32 3.32 0 0 0 1-.32 1.77 1.77 0 0 0 1-1.72zm30.98-3.33a10 10 0 0 1-.74 3.89 8.75 8.75 0 0 1-5.14 5 11.34 11.34 0 0 1-7.79 0 9.09 9.09 0 0 1-3.09-1.93 9 9 0 0 1-2-3 10.59 10.59 0 0 1 0-7.78 8.57 8.57 0 0 1 2-3 9.11 9.11 0 0 1 3.09-1.87 11.82 11.82 0 0 1 7.79 0 9.05 9.05 0 0 1 3.1 1.87 8.57 8.57 0 0 1 2 3 9.92 9.92 0 0 1 .78 3.82zm-4.64 0a6.24 6.24 0 0 0-.38-2.18 5.11 5.11 0 0 0-1.05-1.75 5 5 0 0 0-1.62-1.14 5.13 5.13 0 0 0-2.09-.42 5 5 0 0 0-2.08.42 5.16 5.16 0 0 0-1.62 1.14 4.81 4.81 0 0 0-1.05 1.73 6.24 6.24 0 0 0-.37 2.18 6.46 6.46 0 0 0 .38 2.24 5.15 5.15 0 0 0 1.05 1.76 4.92 4.92 0 0 0 1.61 1.16 5.08 5.08 0 0 0 5.78-1.16 5.17 5.17 0 0 0 1.06-1.76 6.46 6.46 0 0 0 .38-2.22z"/><path class="d" d="M138.68 90.2h3.76a.7.7 0 0 0 .53-.29l15.56-25.48L167 93.58a.49.49 0 0 0 .44.33h16.34a.24.24 0 0 0 .25-.32L166.79 39a.51.51 0 0 0-.46-.33h-6.13a.68.68 0 0 0-.53.3l-21 32.53L117.69 39a.68.68 0 0 0-.53-.3H111a.5.5 0 0 0-.45.33L93.34 93.59a.23.23 0 0 0 .25.32h16.33a.47.47 0 0 0 .44-.33l8.47-29.15 15.56 25.48a.68.68 0 0 0 .53.29zM94.08 63a.35.35 0 0 0-.34-.27H47.2a4.46 4.46 0 0 0 0 8.92h27.66c-3.3 8.7-14.44 15.1-27.66 15.1-15.82 0-28.65-9.16-28.65-20.45S31.38 45.85 47.2 45.85c8.65 0 16.39 2.74 21.64 7.07a.45.45 0 0 0 .2 0h19a.35.35 0 0 0 .35-.34.3.3 0 0 0-.08-.22C80.24 43.78 64.86 38 47.2 38 21.13 38 0 50.66 0 66.32s21.13 28.34 47.2 28.34S94.39 82 94.39 66.32a17 17 0 0 0-.31-3.32m136.08-25C204.09 38 183 50.66 183 66.32s21.13 28.34 47.2 28.34 47.2-12.68 47.2-28.34S256.22 38 230.16 38m0 48.8c-15.82 0-28.65-9.16-28.65-20.45s12.83-20.47 28.65-20.47 28.65 9.12 28.65 20.44S246 86.77 230.16 86.77"/><path class="c" d="M476.33 93a.81.81 0 0 0 .82.88H487a1 1 0 0 0 1-.88l1.7-22.57a.82.82 0 0 0-.82-.88H479a1 1 0 0 0-1 .88zm57.05-23.42a.81.81 0 0 0-.82.88L534.27 93a1 1 0 0 0 1 .87h9.86c.48 0 1.41-.39 1.37-.87l-2.27-22.58a1 1 0 0 0-.95-.88z"/><path class="c" d="M543.86 58.4a.88.88 0 0 0 .88-.88V48a.88.88 0 0 0-.88-.88H517.5a.88.88 0 0 1-.88-.88v-6.65a.88.88 0 0 0-.88-.88h-9.49a.88.88 0 0 0-.88.88v6.69a.88.88 0 0 1-.88.88h-26.17a.88.88 0 0 0-.88.88v9.48a.88.88 0 0 0 .88.88h26.17a.88.88 0 0 1 .88.89V93a.88.88 0 0 0 .88.88h9.49a.88.88 0 0 0 .88-.88V59.29a.88.88 0 0 1 .88-.89zM292 77.29a.6.6 0 0 0 0 .84l7.11 7.11a.6.6 0 0 0 .84 0l25.79-25.78a.58.58 0 0 1 .84 0l33.65 33.74a.6.6 0 0 0 .84 0l7.11-7.12a.6.6 0 0 0 0-.84l-41.62-41.7a.6.6 0 0 0-.84 0zm95 16.03a.51.51 0 0 0 .52.59h10.93a.69.69 0 0 0 .67-.59L405 44.19a.51.51 0 0 0-.52-.59h-10.93a.69.69 0 0 0-.66.59zm44.25-49.72a.51.51 0 0 0-.52.59l6 49.13a.68.68 0 0 0 .66.59h10.93a.51.51 0 0 0 .52-.59l-6-49.13a.69.69 0 0 0-.66-.59z"/><rect class="e" x="550.24" y="37.97" width="8.44" height="14.75" rx=".88"/><rect class="e" x="563.21" y="37.97" width="8.44" height="14.75" rx=".88"/><path class="e" d="M361 54.59a8.31 8.31 0 1 0-8.31-8.31 8.31 8.31 0 0 0 8.31 8.31M458.87 38a8.31 8.31 0 1 0 8.31 8.31 8.31 8.31 0 0 0-8.31-8.31"/></g></svg>
