<?xml version="1.0" encoding="UTF-8"?>
<svg id="Layer_1" data-name="Layer 1" xmlns="http://www.w3.org/2000/svg" xmlns:xlink="http://www.w3.org/1999/xlink" viewBox="0 0 75 75">
  <defs>
    <style>
      .cls-1 {
        fill: url(#linear-gradient-2);
      }

      .cls-2 {
        fill: url(#linear-gradient-4);
      }

      .cls-3 {
        fill: url(#linear-gradient-3);
      }

      .cls-4 {
        fill: url(#linear-gradient);
      }
    </style>
    <linearGradient id="linear-gradient" x1="13.22" y1="18.19" x2="66.33" y2="32.55" gradientUnits="userSpaceOnUse">
      <stop offset="0" stop-color="#e31857"/>
      <stop offset="1" stop-color="#8e1828"/>
    </linearGradient>
    <linearGradient id="linear-gradient-2" x1="14.56" y1="13.24" x2="67.67" y2="27.59" xlink:href="#linear-gradient"/>
    <linearGradient id="linear-gradient-3" x1="5.79" y1="45.66" x2="58.9" y2="60.02" xlink:href="#linear-gradient"/>
    <linearGradient id="linear-gradient-4" x1="7.74" y1="38.46" x2="60.85" y2="52.82" xlink:href="#linear-gradient"/>
  </defs>
  <polygon class="cls-4" points="40.47 21.96 43.4 29.61 46.35 37.23 51.95 37.23 59.36 15.9 54.06 15.9 51.56 23.7 49 31.56 45.95 23.7 42.94 15.9 38.22 15.9 35.17 23.7 32.16 31.53 29.6 23.7 27.07 15.9 21.59 15.9 29.02 37.23 34.59 37.23 37.55 29.61 40.47 21.96"/>
  <polygon class="cls-1" points="64.93 15.9 57.53 37.23 62.77 37.23 70.17 15.9 64.93 15.9"/>
  <polygon class="cls-3" points="29.27 46.93 29.27 54.64 14.95 39.23 8.83 39.23 8.83 60.55 13.61 60.55 13.61 52.87 13.58 45.2 27.9 60.55 34.02 60.55 34.02 39.23 29.24 39.23 29.27 46.93"/>
  <path class="cls-2" d="M35.72,49.92c0,6.73,5.97,11.18,14.32,11.18,1.63,0,3.17-.19,4.61-.53l1.87-5.37c-1.61,1.26-3.84,2.01-6.41,2.01-5.21,0-8.89-2.86-8.89-7.28s3.69-7.34,8.96-7.34c4.44,0,7.98,2.19,8.79,5.61l2.04-5.89c-2.61-2.28-6.48-3.62-10.92-3.62-8.35,0-14.35,4.45-14.35,11.24Z"/>
</svg>