<?xml version="1.0" encoding="UTF-8"?>
<svg id="Layer_1" data-name="Layer 1" xmlns="http://www.w3.org/2000/svg" viewBox="0 0 75 75">
  <defs>
    <style>
      .cls-1 {
        fill: #fff;
      }
    </style>
  </defs>
  <rect class="cls-1" x="0" y="0" width="75" height="75"/>
  <g>
    <path d="M21.59,15.91h5.48l2.53,7.79,2.56,7.82,3.01-7.82,3.04-7.79h4.72l3.01,7.79,3.04,7.86,2.56-7.86,2.5-7.79h5.3l-7.4,21.31h-5.6l-2.95-7.61-2.92-7.64-2.92,7.64-2.95,7.61h-5.57l-7.43-21.31Z"/>
    <path d="M64.92,15.91h5.24l-7.4,21.31h-5.24l7.4-21.31Z"/>
    <path d="M8.84,39.23h6.12l14.31,15.41v-7.7l-.03-7.7h4.78v21.31h-6.12l-14.31-15.35.03,7.67v7.67h-4.78v-21.31Z"/>
    <path d="M56.5,55.18c-1.61,1.26-3.84,2.01-6.41,2.01-5.21,0-8.89-2.86-8.89-7.28s3.68-7.34,8.95-7.34c4.44,0,7.98,2.19,8.78,5.6l2.04-5.89c-2.61-2.28-6.47-3.61-10.92-3.61-8.34,0-14.34,4.44-14.34,11.23s5.97,11.17,14.31,11.17c1.63,0,3.17-.19,4.61-.53l1.86-5.37Z"/>
  </g>
</svg>