<?xml version="1.0" encoding="UTF-8"?>
<svg id="Layer_1" data-name="Layer 1" xmlns="http://www.w3.org/2000/svg" viewBox="0 0 75 75">
  <defs>
    <style>
      .cls-1 {
        fill: #fff;
      }
    </style>
  </defs>
  <path class="cls-1" d="M23.04,17.74h5.04l2.32,7.17,2.35,7.19,2.77-7.19,2.8-7.17h4.34l2.77,7.17,2.8,7.22,2.35-7.22,2.3-7.17h4.87l-6.8,19.59h-5.15l-2.71-7-2.69-7.03-2.69,7.03-2.71,7h-5.12l-6.83-19.59Z"/>
  <path class="cls-1" d="M62.87,17.74h4.81l-6.8,19.59h-4.81l6.8-19.59Z"/>
  <path class="cls-1" d="M11.32,39.17h5.63l13.16,14.16v-7.08l-.03-7.08h4.39v19.59h-5.63l-13.16-14.11.03,7.05v7.05h-4.39v-19.59Z"/>
  <path class="cls-1" d="M55.13,53.84c-1.48,1.16-3.53,1.84-5.89,1.84-4.79,0-8.17-2.63-8.17-6.69s3.39-6.75,8.23-6.75c4.08,0,7.33,2.02,8.07,5.15l1.88-5.41c-2.4-2.09-5.95-3.32-10.04-3.32-7.67,0-13.18,4.09-13.18,10.33s5.49,10.27,13.15,10.27c1.49,0,2.91-.18,4.24-.49l1.71-4.94Z"/>
</svg>